<svg width="21" height="20" viewBox="0 0 21 20" fill="none" xmlns="http://www.w3.org/2000/svg">
<path fill-rule="evenodd" clip-rule="evenodd" d="M5.49935 1.66602H15.4993C17.3403 1.66602 18.8327 3.1584 18.8327 4.99935V14.9993C18.8327 16.8403 17.3403 18.3327 15.4994 18.3327H5.49935C3.6584 18.3327 2.16602 16.8403 2.16602 14.9994V4.99935C2.16602 3.1584 3.6584 1.66602 5.49935 1.66602ZM10.4993 6.04102C10.8445 6.04102 11.1243 6.32084 11.1243 6.66602V9.37435H13.8327C14.1779 9.37435 14.4577 9.65417 14.4577 9.99935C14.4577 10.3445 14.1779 10.6243 13.8327 10.6243H11.1243V13.3327C11.1243 13.6779 10.8445 13.9577 10.4993 13.9577C10.1542 13.9577 9.87435 13.6779 9.87435 13.3327V10.6243H7.16602C6.82084 10.6243 6.54102 10.3445 6.54102 9.99935C6.54102 9.65417 6.82084 9.37435 7.16602 9.37435H9.87435V6.66602C9.87435 6.32084 10.1542 6.04102 10.4993 6.04102Z" fill="white"/>
</svg>
