<svg width="28" height="28" viewBox="0 0 28 28" fill="none" xmlns="http://www.w3.org/2000/svg">
<path fill-rule="evenodd" clip-rule="evenodd" d="M16.666 27.3327H11.3327C6.30437 27.3327 3.79021 27.3327 2.22811 25.7706C0.666016 24.2085 0.666016 21.6943 0.666016 16.666V11.3327C0.666016 6.30437 0.666016 3.79021 2.22811 2.22811C3.79021 0.666016 6.31761 0.666016 11.3724 0.666016C12.1804 0.666016 12.8279 0.666015 13.3727 0.688231C13.3548 0.794806 13.3454 0.903519 13.345 1.01344L13.3327 4.79264C13.3326 6.25545 13.3325 7.5482 13.4726 8.59023C13.6244 9.71972 13.9731 10.849 14.8948 11.7707C15.8165 12.6924 16.9458 13.0411 18.0753 13.193C19.1173 13.333 20.4101 13.3329 21.8729 13.3328L21.9993 13.3328H27.2759C27.3327 14.0452 27.3327 14.9195 27.3327 16.0832V16.666C27.3327 21.6943 27.3327 24.2085 25.7706 25.7706C24.2085 27.3327 21.6943 27.3327 16.666 27.3327ZM4.99935 17.3327C4.99935 16.7804 5.44706 16.3327 5.99935 16.3327H16.666C17.2183 16.3327 17.666 16.7804 17.666 17.3327C17.666 17.885 17.2183 18.3327 16.666 18.3327H5.99935C5.44706 18.3327 4.99935 17.885 4.99935 17.3327ZM4.99935 21.9993C4.99935 21.4471 5.44706 20.9993 5.99935 20.9993H13.3327C13.885 20.9993 14.3327 21.4471 14.3327 21.9993C14.3327 22.5516 13.885 22.9993 13.3327 22.9993H5.99935C5.44706 22.9993 4.99935 22.5516 4.99935 21.9993Z" fill="#0461FE"/>
<path d="M23.8016 8.15488L18.5233 3.40435C17.0195 2.05092 16.2676 1.37421 15.345 1.02018L15.3327 4.66616C15.3327 7.80885 15.3327 9.3802 16.309 10.3565C17.2853 11.3328 18.8567 11.3328 21.9993 11.3328H26.7728C26.2894 10.3939 25.4238 9.61487 23.8016 8.15488Z" fill="#0461FE"/>
</svg>
