<svg width="48" height="48" viewBox="0 0 48 48" fill="none" xmlns="http://www.w3.org/2000/svg">
<path fill-rule="evenodd" clip-rule="evenodd" d="M0 24V38C0 43.5228 4.47715 48 10 48H24H38C43.5228 48 48 43.5229 48 38V24V10C48 4.47715 43.5229 0 38 0H24H10C4.47715 0 0 4.47715 0 10V24Z" fill="#0461FE"/>
<path fill-rule="evenodd" clip-rule="evenodd" d="M20.2506 18.0149C20.2505 18.0099 20.2505 18.005 20.2505 18V17C20.2505 14.9289 21.9294 13.25 24.0005 13.25C26.0716 13.25 27.7505 14.9289 27.7505 17V18C27.7505 18.005 27.7504 18.0099 27.7503 18.0149C29.0376 18.0535 29.8253 18.1924 30.4266 18.6915C31.2598 19.3829 31.4792 20.5534 31.9181 22.8943L32.6681 26.8943C33.2853 30.186 33.5939 31.8318 32.6942 32.9159C31.7945 34 30.12 34 26.7709 34H21.23C17.881 34 16.2064 34 15.3067 32.9159C14.407 31.8318 14.7156 30.186 15.3328 26.8943L16.0828 22.8943C16.5217 20.5534 16.7412 19.3829 17.5743 18.6915C18.1757 18.1924 18.9634 18.0535 20.2506 18.0149ZM21.7505 17C21.7505 15.7574 22.7578 14.75 24.0005 14.75C25.2431 14.75 26.2505 15.7574 26.2505 17V18C26.2505 18 26.2505 18 26.2505 18C26.1752 18 26.0987 18 26.0209 18H21.98C21.9023 18 21.8258 18 21.7505 18C21.7505 18 21.7505 18 21.7505 18V17ZM27.469 22.9144C27.7924 23.1731 27.8449 23.6451 27.5861 23.9685L23.5861 28.9685C23.4529 29.1351 23.255 29.2371 23.0419 29.2489C22.8289 29.2607 22.621 29.1812 22.4701 29.0304L20.4701 27.0304C20.1772 26.7375 20.1772 26.2626 20.4701 25.9697C20.763 25.6768 21.2379 25.6768 21.5308 25.9697L22.938 27.3769L26.4148 23.0315C26.6736 22.7081 27.1455 22.6556 27.469 22.9144Z" fill="white"/>
</svg>
