<svg width="24" height="24" viewBox="0 0 24 24" fill="none" xmlns="http://www.w3.org/2000/svg">
<path fill-rule="evenodd" clip-rule="evenodd" d="M12.0464 2C13.93 1.99999 15.4066 1.99999 16.578 2.1269C17.7734 2.25642 18.742 2.52546 19.569 3.12631C20.0697 3.49006 20.5099 3.93035 20.8737 4.43101C21.4745 5.25801 21.7436 6.2266 21.8731 7.42203C22 8.59343 22 10.07 22 11.9536V12.0465C22 13.9301 22 15.4066 21.8731 16.578C21.7436 17.7734 21.4745 18.742 20.8737 19.569C20.5099 20.0697 20.0697 20.5099 19.569 20.8737C18.742 21.4745 17.7734 21.7436 16.578 21.8731C15.4066 22 13.93 22 12.0464 22H11.9535C10.0699 22 8.59343 22 7.42203 21.8731C6.2266 21.7436 5.25801 21.4745 4.43101 20.8737C3.93035 20.5099 3.49006 20.0697 3.12631 19.569C2.52546 18.742 2.25642 17.7734 2.1269 16.578C1.99999 15.4066 1.99999 13.93 2 12.0464V11.9536C1.99999 10.07 1.99999 8.59345 2.1269 7.42203C2.25642 6.2266 2.52546 5.25801 3.12631 4.43101C3.49006 3.93035 3.93035 3.49006 4.43101 3.12631C5.25801 2.52546 6.2266 2.25642 7.42203 2.1269C8.59345 1.99999 10.07 1.99999 11.9536 2H12.0464ZM12.7692 6.8718C12.7692 6.44696 12.4248 6.10256 12 6.10256C11.5752 6.10256 11.2308 6.44696 11.2308 6.8718V17.1282C11.2308 17.553 11.5752 17.8974 12 17.8974C12.4248 17.8974 12.7692 17.553 12.7692 17.1282V6.8718ZM16.8718 10.9744C16.8718 10.5495 16.5274 10.2051 16.1026 10.2051C15.6777 10.2051 15.3333 10.5495 15.3333 10.9744V17.1282C15.3333 17.553 15.6777 17.8974 16.1026 17.8974C16.5274 17.8974 16.8718 17.553 16.8718 17.1282V10.9744ZM8.66667 13.0256C8.66667 12.6008 8.32227 12.2564 7.89744 12.2564C7.4726 12.2564 7.12821 12.6008 7.12821 13.0256V17.1282C7.12821 17.553 7.4726 17.8974 7.89744 17.8974C8.32227 17.8974 8.66667 17.553 8.66667 17.1282V13.0256Z" fill="#0461FE"/>
</svg>
