<svg width="21" height="20" viewBox="0 0 21 20" fill="none" xmlns="http://www.w3.org/2000/svg">
<path d="M12.3087 6.27593C12.5528 6.52 12.9485 6.52 13.1926 6.27593C13.4367 6.03185 13.4367 5.63612 13.1926 5.39204L10.6926 2.89204C10.4485 2.64796 10.0528 2.64796 9.80871 2.89204L7.30871 5.39204C7.06463 5.63612 7.06463 6.03185 7.30871 6.27593C7.55279 6.52 7.94851 6.52 8.19259 6.27593L9.62565 4.84287V11.6673C9.62565 12.0125 9.90547 12.2923 10.2507 12.2923C10.5958 12.2923 10.8757 12.0125 10.8757 11.6673V4.84287L12.3087 6.27593Z" fill="#0461FE"/>
<path d="M17.5423 10.0007C17.5423 9.65547 17.2625 9.37565 16.9173 9.37565C16.5721 9.37565 16.2923 9.65547 16.2923 10.0007C16.2923 13.3374 13.5874 16.0423 10.2507 16.0423C6.91393 16.0423 4.20898 13.3374 4.20898 10.0006C4.20898 9.65547 3.92916 9.37565 3.58398 9.37565C3.23881 9.37565 2.95898 9.65547 2.95898 10.0006C2.95898 14.0277 6.22357 17.2923 10.2507 17.2923C14.2777 17.2923 17.5423 14.0277 17.5423 10.0007Z" fill="#0461FE"/>
</svg>
