<svg width="40" height="27" viewBox="0 0 40 27" fill="none" xmlns="http://www.w3.org/2000/svg">
<g clip-path="url(#clip0_2185_5901)">
<path d="M0.00195312 17.8887H39.9992V27.0005H0.00195312V17.8887Z" fill="#11892E"/>
<path d="M0.00195312 0H39.9992V9.11259H0.00195312V0Z" fill="#F2963B"/>
<path d="M0 9.11523H39.9997V17.8896H0V9.11523Z" fill="white"/>
<path d="M23.6345 13.0172C23.3703 10.985 21.5285 9.5537 19.5214 9.82122C17.5119 10.0898 16.0997 11.9535 16.3638 13.9858C16.628 16.0181 18.4697 17.4481 20.479 17.1818C22.4861 16.9131 23.8986 15.0496 23.6345 13.0172ZM23.2004 13.7417C23.1016 13.7312 23.0098 13.8008 22.9982 13.9009C22.9845 14.0009 23.0509 14.0927 23.1499 14.1078C23.1358 14.1834 23.1175 14.2591 23.0992 14.3333L21.4228 13.7776L20.6283 13.6205C20.6325 13.5972 20.6375 13.5741 20.6397 13.5506L21.4431 13.6076L23.2069 13.5111C23.2074 13.5881 23.2027 13.6648 23.2004 13.7417ZM16.8003 13.2613C16.8989 13.2719 16.9885 13.2009 17.0023 13.1022C17.0162 13.0021 16.9472 12.9114 16.8484 12.8941C16.8622 12.8197 16.8806 12.7441 16.8989 12.6697L18.5754 13.2255L19.3722 13.3824C19.3677 13.4045 19.363 13.4278 19.3608 13.4522L18.5546 13.3953L16.7932 13.4918C16.7932 13.4149 16.7954 13.3381 16.8003 13.2613ZM16.8484 14.1078C16.9472 14.0927 17.0162 14.0008 17.0023 13.9009C16.9885 13.8008 16.8989 13.731 16.8003 13.7417C16.7956 13.6648 16.7932 13.5871 16.7932 13.5115L18.5546 13.608L19.363 13.5511C19.3653 13.5628 19.363 13.5744 19.3653 13.5871C19.3653 13.5988 19.3699 13.609 19.3722 13.6209L18.5754 13.778L16.8989 14.3338C16.8806 14.2591 16.8644 14.1845 16.8484 14.1078ZM21.4436 13.3953L20.6375 13.4522C20.6351 13.4407 20.6375 13.429 20.6351 13.4162C20.6351 13.4047 20.6306 13.3929 20.6283 13.3824L21.4228 13.2255L23.0992 12.6697C23.1175 12.7441 23.1358 12.8197 23.1499 12.8953C23.0509 12.9116 22.9843 13.0023 22.9982 13.1022C23.0098 13.201 23.0992 13.2719 23.198 13.2613C23.2024 13.3381 23.2072 13.4159 23.2072 13.4917L21.4436 13.3953ZM23.0282 12.4315C23.0512 12.5035 23.0764 12.5768 23.0973 12.6512L21.368 13.0198L20.6056 13.2859C20.5964 13.2639 20.5849 13.243 20.576 13.2209L21.3041 12.8616L22.781 11.8861C22.8199 11.9523 22.8545 12.0198 22.8886 12.0896C22.7993 12.1314 22.7554 12.2372 22.794 12.3303C22.8305 12.4222 22.9363 12.4674 23.0282 12.4315ZM22.399 11.6384C22.4585 11.7176 22.5712 11.7325 22.6493 11.6756C22.6951 11.7385 22.7342 11.8035 22.771 11.8698L21.198 12.6778L20.5274 13.1359C20.5134 13.1173 20.5021 13.0964 20.4861 13.0789L21.0946 12.5418L22.2726 11.2117C22.3253 11.2664 22.3786 11.3221 22.4288 11.3816C22.3508 11.4453 22.3392 11.5582 22.399 11.6384ZM21.8408 11.0721C21.9189 11.1338 22.0316 11.1187 22.0936 11.0419C22.1513 11.0918 22.2065 11.1441 22.2614 11.1988L20.9478 12.3918L20.4147 13.0103C20.3964 12.9951 20.3806 12.98 20.3595 12.9673L20.8142 12.2871L21.611 10.6943C21.6751 10.7327 21.7394 10.7747 21.8035 10.8176C21.7469 10.899 21.7605 11.0118 21.8408 11.0721ZM21.1565 10.6722C21.2483 10.7106 21.3516 10.6676 21.3929 10.5769C21.4619 10.6106 21.5305 10.6466 21.5951 10.685L20.6306 12.1813L20.277 12.9162C20.256 12.9056 20.2332 12.8987 20.2104 12.8907L20.4765 12.1152L20.8373 10.3678C20.9108 10.3875 20.9842 10.4108 21.0577 10.4364C21.0211 10.5294 21.0648 10.6339 21.1565 10.6722ZM20.2355 10.263C20.2263 10.3619 20.2953 10.4524 20.3941 10.4653C20.4929 10.4782 20.5823 10.4107 20.5984 10.3108C20.6745 10.3259 20.7479 10.3434 20.821 10.3631L20.2723 12.0605L20.1183 12.8662C20.0928 12.8616 20.0725 12.8558 20.0472 12.8535L20.1047 12.0373L20.0085 10.2537C20.084 10.2537 20.1621 10.2574 20.2355 10.263ZM19.6041 10.4653C19.7029 10.4526 19.774 10.3619 19.7649 10.263C19.8384 10.2573 19.9164 10.2549 19.9901 10.2537L19.8958 12.0373L19.9508 12.8557C19.9394 12.8569 19.928 12.8557 19.9164 12.8569C19.905 12.8581 19.8913 12.8638 19.8797 12.8662L19.7259 12.0605L19.177 10.3619C19.2504 10.3434 19.3239 10.3259 19.3997 10.3108C19.4158 10.4107 19.5054 10.4781 19.6041 10.4653ZM18.8418 10.6722C18.9359 10.6339 18.9773 10.528 18.9428 10.4339C19.0139 10.4095 19.0874 10.3875 19.1609 10.3677L19.5237 12.1151L19.7856 12.8883C19.7648 12.8976 19.7442 12.908 19.7235 12.9185L19.3675 12.1815L18.4053 10.684C18.4695 10.6468 18.5363 10.6106 18.6051 10.5769C18.6465 10.6676 18.7498 10.7106 18.8418 10.6722ZM18.1597 11.0721C18.2378 11.0116 18.2539 10.8978 18.194 10.8163C18.2583 10.7732 18.3204 10.7326 18.3893 10.6942L19.1838 12.287L19.6385 12.9671C19.6202 12.9799 19.5994 12.994 19.5811 13.0089L19.0506 12.3916L17.7369 11.1987C17.7944 11.144 17.8471 11.0917 17.9069 11.0417C17.9667 11.1187 18.0793 11.1338 18.1597 11.0721ZM17.6015 11.6384C17.6612 11.5582 17.6475 11.4455 17.5717 11.3816C17.6176 11.3235 17.6727 11.2676 17.7256 11.2117L18.9037 12.5418L19.5146 13.0801C19.5009 13.0976 19.4848 13.1173 19.471 13.1359L18.8005 12.6778L17.2274 11.8698C17.2641 11.8035 17.3054 11.7373 17.349 11.6744C17.427 11.7325 17.5419 11.7174 17.6015 11.6384ZM17.2043 12.3301C17.2433 12.2372 17.2019 12.1314 17.11 12.0894C17.1444 12.0208 17.1789 11.9522 17.2179 11.8859L18.6945 12.8615L19.4226 13.2207C19.4134 13.2416 19.4043 13.2649 19.3974 13.287L18.6304 13.0196L16.9035 12.6522C16.9241 12.5766 16.9471 12.5046 16.9699 12.4314C17.062 12.4674 17.1675 12.4222 17.2043 12.3301ZM16.9701 14.5717C16.9472 14.4996 16.9242 14.4252 16.9036 14.3508L18.6305 13.9824L19.3952 13.7172C19.4022 13.7392 19.4136 13.7604 19.4227 13.7813L18.6947 14.1419L17.218 15.1171C17.1789 15.051 17.1445 14.9835 17.1101 14.9136C17.2021 14.873 17.2433 14.766 17.2044 14.673C17.1675 14.5798 17.062 14.5345 16.9701 14.5717ZM17.6015 15.3647C17.5419 15.2856 17.427 15.2705 17.3489 15.3287C17.3053 15.2646 17.264 15.1996 17.2272 15.1334L18.8003 14.3253L19.4709 13.866C19.4846 13.8859 19.4984 13.9056 19.5145 13.9243L18.9035 14.4614L17.7255 15.7903C17.6727 15.7357 17.6198 15.68 17.5715 15.6216C17.6476 15.5576 17.6614 15.4449 17.6015 15.3647ZM18.1597 15.9308C18.0793 15.8691 17.9669 15.8844 17.907 15.961C17.8495 15.911 17.7944 15.8589 17.7371 15.804L19.0508 14.6112L19.5836 13.9914C19.6019 14.0076 19.6203 14.0227 19.6386 14.0344L19.184 14.7145L18.3895 16.3084C18.3229 16.27 18.2585 16.2282 18.1942 16.1851C18.2538 16.1051 18.2378 15.9912 18.1597 15.9308ZM18.8418 16.3294C18.7498 16.2922 18.6465 16.334 18.6052 16.4258C18.5363 16.392 18.4697 16.3548 18.4054 16.3177L19.3677 14.8214L19.7237 14.0854C19.7443 14.0959 19.7673 14.1039 19.7879 14.111L19.5237 14.8875L19.1609 16.6349C19.0874 16.6152 19.0162 16.5931 18.9428 16.5675C18.9773 16.4737 18.9335 16.369 18.8418 16.3294ZM19.7649 16.74C19.7742 16.6411 19.7029 16.5507 19.6041 16.5377C19.5054 16.5238 19.4158 16.5936 19.3997 16.6912C19.3238 16.6773 19.2503 16.6598 19.177 16.6401L19.7259 14.9426L19.8797 14.137C19.905 14.1414 19.928 14.1472 19.9508 14.1497L19.8958 14.9647L19.9901 16.7495C19.9141 16.7493 19.8384 16.747 19.7649 16.74ZM20.3941 16.5377C20.2953 16.5506 20.2263 16.6399 20.2355 16.74C20.1597 16.7446 20.084 16.7483 20.0082 16.7483L20.1045 14.9647L20.0469 14.1463C20.0583 14.1451 20.0725 14.1475 20.0813 14.1451C20.0924 14.1439 20.1066 14.1393 20.118 14.137L20.272 14.9426L20.8207 16.6401C20.7473 16.6598 20.6738 16.6773 20.5981 16.6912C20.5824 16.5936 20.4929 16.5238 20.3941 16.5377ZM21.1565 16.3294C21.0646 16.369 21.021 16.4737 21.0577 16.5676C20.9842 16.5931 20.9108 16.6152 20.8373 16.6351L20.4765 14.8877L20.2126 14.1146C20.2332 14.1052 20.2535 14.0949 20.2767 14.0833L20.6303 14.8214L21.5948 16.3177C21.5307 16.3561 21.4616 16.3921 21.3926 16.4258C21.3516 16.3343 21.2483 16.2922 21.1565 16.3294ZM21.8408 15.9308C21.7605 15.9912 21.7467 16.1051 21.8041 16.1867C21.74 16.2285 21.6779 16.2703 21.6113 16.3087L20.8147 14.7148L20.3604 14.0347C20.3812 14.023 20.4014 14.0092 20.4179 13.9942L20.9484 14.6115L22.262 15.8043C22.2069 15.859 22.1517 15.9113 22.0942 15.9613C22.0314 15.8842 21.9189 15.8691 21.8408 15.9308ZM22.399 15.3647C22.3392 15.4449 22.3531 15.5577 22.4288 15.6206C22.3807 15.6798 22.3253 15.7357 22.2726 15.7904L21.0946 14.4615L20.4836 13.9232C20.4976 13.9047 20.5134 13.886 20.5274 13.8662L21.198 14.3255L22.771 15.1323C22.7342 15.1998 22.6929 15.2649 22.6493 15.3289C22.5689 15.2703 22.4585 15.2854 22.399 15.3647ZM22.7939 14.673C22.7545 14.766 22.7984 14.8718 22.8881 14.9137C22.8537 14.9822 22.8191 15.0496 22.7803 15.1171L21.3036 14.1419L20.5779 13.7824C20.5871 13.7615 20.594 13.7383 20.6032 13.7163L21.368 13.9825L23.0953 14.351C23.0768 14.4254 23.0514 14.4999 23.0287 14.5706C22.9363 14.5357 22.8305 14.581 22.7939 14.673Z" fill="#21296F"/>
</g>
<defs>
<clipPath id="clip0_2185_5901">
<rect width="40" height="27" rx="5" fill="white"/>
</clipPath>
</defs>
</svg>
