<svg width="1636" height="231" viewBox="0 0 1636 231" fill="none" xmlns="http://www.w3.org/2000/svg">
<path d="M786.712 162.591L781.965 130.868H769.286V96.4979H770.854V93.3915H764.698V80H763.948V93.3915H759.692V82.4213H758.942V93.3915H733.299V96.4979H735.05V162.591H705.772V135H689.097V58.2383H690.622V54.4723H687.29V49.6511H683.456V47.8426V42.3277V37.5447H678.833V29H678.275H677.722V37.5447H675.229L673.721 42.3277H663.628V49.6511H637.218V54.4723H633.89V58.2383H635.416V108.183H613.317V157.251L588.794 146.4V98.7702H592.752V95.2723H585.79V85.7745H555.989V95.2723H546.254V85.7745H541.248V95.2723H536.242V85.7745H530.737V95.2723H519.225V98.7702H520.977V162.591H510.21V43.017H511.241V41.5021H513.005V37.3787H480.085V32.7872H481.154V31.4596H463.235V32.7872H464.304V37.3787H456.146V41.5021H457.91V43.017H459.039V162.591H450.139V121.57H404.927V162.591H397.586V30.166H392.154V33.6298L382.134 36.0766V33.8255H376.702V37.4043L366.681 39.8511V37.2723H361.249V41.1787L351.229 43.6298V41.4979H345.797V44.9532L335.776 47.4043V45.5702H330.344V162.591H322.705V107.289H294.408V150.63H265.394V113.672H261.82V101.536H263.941V100.315H254.551V96.4979H253.55V100.315H250.551V80.7234H249.797V100.315H245.886V101.536H248.191V113.672H229.04V141.864H210.401L204.781 162.591H181.132V60.5404H155.271V56.3404H156.741V54.8681H137.151V56.3404H138.694V60.5404V67.2936V147.583H126.496V117.247H130.833V114.502H100.15V96.1745H94.2958V92.4085H81.2291V96.1745H70.5994V161.613H35.7193V113.081H6.35228V151.413H0V190H6.35228H14.9157H19.5042H35.7193H70.5994H81.2291H94.2958H100.15H123.041H126.496H138.694H159.144H169.215H181.132H229.04H240.104H258.782H265.394H294.902H302.83H330.344H333.062H335.776H345.797H351.229H361.249H365.791H366.681H376.702H382.134H390.748H392.154H394.872H397.586H404.927H442.295H447.633H450.139H461.373H481.154H499.265H507.773H520.977H553.765H588.432H588.794H613.317H627.027H635.416H640.711H681.748H689.097H697.882H705.772H735.05H756.82H761.277H769.286H818V172.285V162.591H786.712Z" fill="white" fill-opacity="0.2"/>
<path d="M1604.71 162.591L1599.97 130.868H1587.29V96.4979H1588.85V93.3915H1582.7V80H1581.95V93.3915H1577.69V82.4213H1576.94V93.3915H1551.3V96.4979H1553.05V162.591H1523.77V135H1507.1V58.2383H1508.62V54.4723H1505.29V49.6511H1501.46V47.8426V42.3277V37.5447H1496.83V29H1496.28H1495.72V37.5447H1493.23L1491.72 42.3277H1481.63V49.6511H1455.22V54.4723H1451.89V58.2383H1453.42V108.183H1431.32V157.251L1406.79 146.4V98.7702H1410.75V95.2723H1403.79V85.7745H1373.99V95.2723H1364.25V85.7745H1359.25V95.2723H1354.24V85.7745H1348.74V95.2723H1337.23V98.7702H1338.98V162.591H1328.21V43.017H1329.24V41.5021H1331.01V37.3787H1298.09V32.7872H1299.15V31.4596H1281.24V32.7872H1282.3V37.3787H1274.15V41.5021H1275.91V43.017H1277.04V162.591H1268.14V121.57H1222.93V162.591H1215.59V30.166H1210.15V33.6298L1200.13 36.0766V33.8255H1194.7V37.4043L1184.68 39.8511V37.2723H1179.25V41.1787L1169.23 43.6298V41.4979H1163.8V44.9532L1153.78 47.4043V45.5702H1148.34V162.591H1140.71V107.289H1112.41V150.63H1083.39V113.672H1079.82V101.536H1081.94V100.315H1072.55V96.4979H1071.55V100.315H1068.55V80.7234H1067.8V100.315H1063.89V101.536H1066.19V113.672H1047.04V141.864H1028.4L1022.78 162.591H999.132V60.5404H973.271V56.3404H974.741V54.8681H955.151V56.3404H956.694V60.5404V67.2936V147.583H944.496V117.247H948.833V114.502H918.15V96.1745H912.296V92.4085H899.229V96.1745H888.599V161.613H853.719V113.081H824.352V151.413H818V190H824.352H832.916H837.504H853.719H888.599H899.229H912.296H918.15H941.041H944.496H956.694H977.144H987.215H999.132H1047.04H1058.1H1076.78H1083.39H1112.9H1120.83H1148.34H1151.06H1153.78H1163.8H1169.23H1179.25H1183.79H1184.68H1194.7H1200.13H1208.75H1210.15H1212.87H1215.59H1222.93H1260.3H1265.63H1268.14H1279.37H1299.15H1317.27H1325.77H1338.98H1371.76H1406.43H1406.79H1431.32H1445.03H1453.42H1458.71H1499.75H1507.1H1515.88H1523.77H1553.05H1574.82H1579.28H1587.29H1636V172.285V162.591H1604.71Z" fill="white" fill-opacity="0.2"/>
<path d="M1538 190H98V231H1538V190Z" fill="#262D33"/>
<path d="M108.001 211.999H124.001" stroke="white" stroke-width="5" stroke-miterlimit="10"/>
<path d="M157.001 211.999H1506" stroke="white" stroke-width="5" stroke-miterlimit="10"/>
<path d="M1526.77 212.216H1537.99" stroke="white" stroke-width="5" stroke-miterlimit="10"/>
<path d="M1538 184H98V190H1538V184Z" fill="#505D68"/>
<path d="M565.447 200.861H594.885L589.668 195.539L581.54 164.414H578.792L570.486 196.202L565.447 200.861Z" fill="#FFC511"/>
<path d="M81 200.861H110.438L105.221 195.539L97.0929 164.414H94.3452L86.0392 196.202L81 200.861Z" fill="#FFC511"/>
<path d="M577.001 172.123L584.116 172.712L585.773 179.132L575.26 178.891L577.001 172.123Z" fill="white"/>
<path d="M92.5542 172.123L99.6689 172.712L101.326 179.132L90.8125 178.891L92.5542 172.123Z" fill="white"/>
<path d="M572.414 188.244H588.101L589.979 195.291L570.354 195.954L572.414 188.244Z" fill="white"/>
<path d="M87.9664 188.244H103.654L105.532 195.291L85.9062 195.954L87.9664 188.244Z" fill="white"/>
<path d="M1039.26 200.861H1068.7L1063.48 195.539L1055.35 164.414H1052.61L1044.3 196.202L1039.26 200.861Z" fill="#FFC511"/>
<path d="M1050.11 172.124L1057.23 172.713L1058.89 179.133L1048.37 178.892L1050.11 172.124Z" fill="white"/>
<path d="M1046.15 188.244H1061.28L1063.09 195.291L1044.17 195.954L1046.15 188.244Z" fill="white"/>
<path d="M1338.22 141.284H1373.26C1373.26 141.284 1376.75 142.492 1382.06 148.683L1386.31 154.273C1386.31 154.273 1389.62 158.504 1385.69 158.807H1321.82C1321.82 158.807 1318.46 157.447 1321.82 154.273L1338.21 141.284H1338.22Z" fill="#455A64"/>
<g opacity="0.1">
<path d="M1347.42 141.064L1326.87 161.606C1325.23 161.491 1323.61 161.375 1322.03 161.249L1342.2 141.085C1343.85 141.069 1345.61 141.059 1347.42 141.059L1347.42 141.064Z" fill="white"/>
<path d="M1381.27 141.064L1360.73 161.606C1359.08 161.491 1357.46 161.375 1355.89 161.249L1376.05 141.085C1377.71 141.069 1379.47 141.059 1381.27 141.059L1381.27 141.064Z" fill="white"/>
<path d="M1351.28 141.364L1330.9 161.738C1330.43 161.717 1329.96 161.696 1329.48 161.681L1350.23 140.938C1350.56 141.07 1350.91 141.212 1351.28 141.364Z" fill="white"/>
<path d="M1362.66 141.364L1342.29 161.738C1341.81 161.717 1341.35 161.696 1340.87 161.681L1361.61 140.938C1361.94 141.07 1362.29 141.212 1362.66 141.364Z" fill="white"/>
</g>
<path d="M1303.19 172.913C1294.26 172.986 1287.12 180.249 1287.17 189.198C1287.22 197.996 1294.53 205.179 1303.38 205.132C1312.29 205.08 1319.45 197.806 1319.39 188.852C1319.34 180.049 1312.01 172.844 1303.18 172.913H1303.19Z" fill="black"/>
<path d="M1310 195.738C1313.71 192.028 1313.71 186.012 1310 182.301C1306.29 178.591 1300.27 178.591 1296.56 182.301C1292.85 186.012 1292.85 192.027 1296.56 195.738C1300.27 199.449 1306.29 199.449 1310 195.738Z" fill="#262D33"/>
<path d="M1303.28 195.341C1306.77 195.341 1309.6 192.511 1309.6 189.019C1309.6 185.528 1306.77 182.697 1303.28 182.697C1299.79 182.697 1296.96 185.528 1296.96 189.019C1296.96 192.511 1299.79 195.341 1303.28 195.341Z" fill="white"/>
<path d="M1383.09 172.913C1374.17 172.986 1367.02 180.249 1367.07 189.198C1367.12 197.996 1374.43 205.179 1383.28 205.132C1392.19 205.08 1399.35 197.806 1399.29 188.852C1399.24 180.049 1391.91 172.844 1383.08 172.913H1383.09Z" fill="black"/>
<path d="M1389.9 195.735C1393.61 192.025 1393.61 186.009 1389.9 182.298C1386.19 178.588 1380.18 178.588 1376.46 182.298C1372.75 186.009 1372.75 192.025 1376.46 195.735C1380.18 199.446 1386.19 199.446 1389.9 195.735Z" fill="#262D33"/>
<path d="M1383.18 195.341C1386.67 195.341 1389.51 192.511 1389.51 189.019C1389.51 185.528 1386.67 182.697 1383.18 182.697C1379.69 182.697 1376.86 185.528 1376.86 189.019C1376.86 192.511 1379.69 195.341 1383.18 195.341Z" fill="white"/>
<path d="M1414.89 167.132C1414.88 166.477 1414.8 165.843 1414.67 165.23C1413.72 160.823 1409.82 157.522 1405.14 157.433C1402.33 157.386 1399.52 157.391 1396.7 157.438C1395.84 157.454 1395.27 157.213 1394.71 156.542C1390.49 151.543 1386.16 146.638 1381.99 141.587C1379.02 137.987 1375.36 136.326 1370.67 136.378C1360.53 136.488 1350.39 136.441 1340.25 136.394C1336.82 136.378 1333.86 137.416 1331.24 139.622C1325.16 144.715 1318.97 149.662 1312.98 154.844C1310.76 156.767 1308.38 157.779 1305.52 158.25C1298.26 159.445 1291.02 160.818 1283.77 162.154C1278.81 163.066 1275.54 167.022 1275.5 172.084C1275.47 175.401 1275.44 178.718 1275.51 182.035C1275.62 187.018 1279.54 191.179 1284.49 191.645C1284.88 191.682 1285.28 191.651 1285.7 191.651C1283.83 179.991 1292.68 170.601 1303.27 170.664C1313.62 170.732 1322.45 179.944 1320.61 191.577H1365.31C1363.39 179.258 1373.29 170.213 1383.56 170.669C1393.64 171.125 1402.12 180.185 1400.3 191.52C1407.59 192.966 1414.7 187.38 1414.88 179.97C1414.91 178.907 1414.92 177.833 1414.93 176.769C1414.97 173.551 1414.94 170.339 1414.89 167.122V167.132ZM1358.47 153.576C1358.46 156.123 1357.2 157.407 1354.66 157.417C1349.58 157.443 1344.51 157.422 1339.44 157.422V157.47C1334.32 157.47 1329.2 157.464 1324.09 157.475C1323.16 157.475 1322.29 157.407 1321.95 156.369C1321.63 155.358 1322.19 154.724 1322.93 154.147C1327.61 150.474 1332.25 146.769 1336.97 143.148C1337.64 142.63 1338.63 142.279 1339.49 142.263C1344.61 142.179 1349.72 142.21 1354.84 142.226C1357.13 142.237 1358.44 143.562 1358.47 145.842C1358.49 148.42 1358.48 150.998 1358.47 153.581V153.576ZM1385.54 156.348C1385.26 156.883 1384.35 157.333 1383.7 157.37C1381.4 157.49 1379.09 157.417 1376.79 157.412C1374.4 157.412 1372 157.449 1369.61 157.407C1367.65 157.365 1366.28 156.055 1366.25 154.121C1366.18 151.27 1366.19 148.42 1366.24 145.564C1366.28 143.609 1367.61 142.299 1369.57 142.226C1370.72 142.184 1371.9 142.037 1373.01 142.268C1374.02 142.472 1375.2 142.886 1375.86 143.615C1379.04 147.131 1382.09 150.757 1385.11 154.409C1385.5 154.886 1385.79 155.897 1385.54 156.348Z" fill="white"/>
<path d="M1327.14 180.465V180.161C1327.14 179.683 1327.52 179.296 1327.99 179.296H1328.3V180.465H1328.74V181.317H1327.67L1328.3 181.451V182.553C1328.3 182.802 1328.38 183.014 1328.55 183.189C1328.72 183.364 1328.93 183.454 1329.19 183.459V184.641C1328.61 184.627 1328.12 184.42 1327.73 184.019C1327.34 183.618 1327.14 183.129 1327.14 182.553V182.507C1327.15 182.501 1327.15 182.496 1327.15 182.49H1327.14V181.317" fill="#080808"/>
<path d="M1331.28 179.255H1329.17C1329.15 179.255 1329.14 179.268 1329.14 179.285V180.409C1329.14 180.425 1329.15 180.439 1329.17 180.439H1331.11C1331.2 180.439 1331.28 180.515 1331.28 180.608V181.546C1331.28 181.563 1331.29 181.577 1331.31 181.577H1332.4C1332.42 181.577 1332.43 181.563 1332.43 181.546V179.533C1332.43 179.379 1332.31 179.255 1332.16 179.255H1331.28H1331.28Z" fill="#0461FE"/>
<path d="M1331.27 184.64H1329.76C1329.75 184.64 1329.74 184.628 1329.74 184.613V183.483C1329.74 183.468 1329.75 183.456 1329.76 183.456H1331.11C1331.2 183.456 1331.27 183.382 1331.27 183.29V182.151C1331.27 182.136 1331.29 182.124 1331.3 182.124H1332.41C1332.42 182.124 1332.43 182.136 1332.43 182.151V184.365C1332.43 184.517 1332.31 184.64 1332.16 184.64H1331.27L1331.27 184.64Z" fill="#0461FE"/>
<path d="M1335.67 180.243H1334.08V179.184H1338.49V180.243H1336.91V184.569H1335.67V180.243Z" fill="#080808"/>
<path d="M1339.95 180.696V181.188C1340.17 180.802 1340.54 180.553 1340.96 180.553C1341.11 180.553 1341.26 180.591 1341.41 180.651V181.657C1341.2 181.566 1340.95 181.521 1340.79 181.521C1340.31 181.521 1339.99 181.929 1339.99 182.512V184.569H1338.88V180.696H1339.95Z" fill="#080808"/>
<path d="M1344.99 180.696H1346.1V184.569H1344.99V184.032C1344.69 184.463 1344.24 184.72 1343.7 184.72C1342.63 184.72 1341.88 183.858 1341.88 182.632C1341.88 181.407 1342.63 180.545 1343.7 180.545C1344.24 180.545 1344.69 180.802 1344.99 181.233V180.696V180.696ZM1344.98 182.633C1344.98 182.005 1344.56 181.543 1343.99 181.543C1343.41 181.543 1343 182.005 1343 182.633C1343 183.261 1343.41 183.722 1343.99 183.722C1344.56 183.722 1344.98 183.261 1344.98 182.633Z" fill="#080808"/>
<path d="M1347.06 178.957H1348.17V182.126L1349.45 180.697H1350.8L1349.15 182.512L1350.85 184.569H1349.49L1348.17 182.905V184.569H1347.06V178.957H1347.06Z" fill="#080808"/>
<path d="M1351.58 185.341C1351.72 185.387 1351.9 185.417 1352.03 185.417C1352.51 185.417 1352.69 185.077 1352.86 184.608L1351.07 180.697H1352.29L1353.32 183.193L1354.16 180.697H1355.31L1353.85 184.706C1353.49 185.704 1353.09 186.317 1352.32 186.317C1352.08 186.317 1351.79 186.264 1351.58 186.181V185.341L1351.58 185.341Z" fill="#080808"/>
<path d="M1359.77 182.632C1359.77 183.865 1358.91 184.72 1357.66 184.72C1356.41 184.72 1355.56 183.865 1355.56 182.632C1355.56 181.4 1356.42 180.545 1357.66 180.545C1358.9 180.545 1359.77 181.392 1359.77 182.632ZM1358.65 182.632C1358.65 181.997 1358.25 181.543 1357.66 181.543C1357.08 181.543 1356.68 181.997 1356.68 182.632C1356.68 183.268 1357.08 183.722 1357.66 183.722C1358.24 183.722 1358.65 183.268 1358.65 182.632Z" fill="#080808"/>
<path d="M1346.62 163.012H1356.41C1357 163.012 1357.47 163.444 1357.47 163.972V164.154C1357.47 164.682 1357 165.114 1356.41 165.114H1346.62C1346.04 165.114 1345.56 164.682 1345.56 164.154V163.972C1345.56 163.444 1346.04 163.012 1346.62 163.012Z" fill="#455A64"/>
<path d="M1414.94 176.522L1412.84 177.03L1408.64 165.114H1414.69C1414.81 165.72 1414.88 166.346 1414.89 166.993C1414.94 170.166 1414.97 173.344 1414.94 176.522Z" fill="white"/>
<path d="M1283.76 170.58C1281.79 173.155 1278.86 174.227 1277.22 172.976C1275.58 171.72 1275.85 168.614 1277.82 166.034C1279.79 163.459 1282.72 162.387 1284.36 163.638C1286 164.888 1285.73 167.999 1283.76 170.58Z" fill="#595959"/>
<path d="M1283.15 169.974C1281.18 172.549 1278.25 173.621 1276.61 172.371C1274.97 171.115 1275.24 168.009 1277.21 165.428C1279.18 162.853 1282.11 161.781 1283.75 163.032C1285.39 164.288 1285.12 167.394 1283.15 169.974Z" fill="white"/>
<path d="M1480.92 186.417C1480.82 186.492 1480.68 186.555 1480.5 186.603L1459.66 192.232C1458.62 192.513 1459.13 193.151 1460.4 193.151H1503.37C1504.62 193.151 1505.14 192.529 1504.13 192.243L1482.84 186.237C1482.19 186.056 1481.28 186.141 1480.92 186.417Z" fill="#9297A2"/>
<path d="M1484.34 76.7998H1480.83V186.842H1484.34V76.7998Z" fill="#9A9EA5"/>
<path d="M1494.65 0H1469.85C1467.39 0 1465.4 1.99049 1465.4 4.44589V77.2723C1465.4 79.7277 1467.39 81.7181 1469.85 81.7181H1494.65C1497.11 81.7181 1499.1 79.7277 1499.1 77.2723V4.44589C1499.1 1.99049 1497.11 0 1494.65 0Z" fill="#04090D"/>
<path d="M1482.25 50.2732C1476.9 50.2732 1472.57 45.9377 1472.57 40.5931C1472.57 35.2486 1476.9 30.9131 1482.25 30.9131C1487.59 30.9131 1491.93 35.2486 1491.93 40.5931C1491.93 45.9377 1487.59 50.2732 1482.25 50.2732Z" fill="#FFC511"/>
<path opacity="0.2" d="M1482.9 47.7987H1481.6C1478.43 47.7987 1475.63 46.2536 1473.89 43.873C1475.26 47.147 1478.48 49.4435 1482.25 49.4435C1486.02 49.4435 1489.24 47.1418 1490.61 43.873C1488.88 46.2536 1486.07 47.7987 1482.9 47.7987Z" fill="white"/>
<path opacity="0.2" d="M1482.25 30.9131C1476.9 30.9131 1472.57 35.2486 1472.57 40.5931C1472.57 40.982 1472.59 41.3657 1472.64 41.744C1473.21 36.9408 1477.29 33.2149 1482.25 33.2149C1487.2 33.2149 1491.29 36.9408 1491.86 41.744C1491.91 41.3657 1491.93 40.982 1491.93 40.5931C1491.93 35.2486 1487.59 30.9131 1482.25 30.9131Z" fill="black"/>
<path d="M1491.86 41.7451C1491.83 40.3683 1491.56 39.0439 1491.06 37.8352C1490.56 36.6318 1489.84 35.5492 1488.94 34.6559C1487.17 32.8533 1484.72 31.8286 1482.25 31.8338C1479.77 31.8286 1477.33 32.8533 1475.56 34.6559C1474.67 35.5492 1473.95 36.6318 1473.44 37.8352C1472.95 39.0439 1472.67 40.3683 1472.64 41.7451C1472.54 41.414 1472.48 41.0724 1472.43 40.7256C1472.39 40.3788 1472.38 40.0319 1472.35 39.6798C1472.34 39.3277 1472.38 38.9756 1472.4 38.6183C1472.44 38.2662 1472.51 37.9193 1472.57 37.562C1472.89 36.1641 1473.55 34.8293 1474.47 33.6889C1475.39 32.5485 1476.57 31.6079 1477.91 30.9667C1478 30.9247 1478.08 30.8774 1478.17 30.8459L1478.42 30.746L1478.94 30.5463C1479.12 30.4727 1479.3 30.4359 1479.48 30.3834L1480.02 30.2363C1480.38 30.1574 1480.76 30.1154 1481.12 30.0523C1481.5 30.026 1481.87 30.005 1482.24 29.9893C1482.61 30.0103 1482.98 30.026 1483.35 30.0523C1483.72 30.1154 1484.09 30.1574 1484.46 30.2363L1485 30.3834C1485.18 30.4359 1485.36 30.4727 1485.53 30.5463L1486.05 30.746C1486.23 30.8091 1486.4 30.8826 1486.56 30.972C1487.9 31.6131 1489.09 32.5538 1490.01 33.6942C1490.93 34.8345 1491.59 36.1694 1491.91 37.5672C1491.97 37.9193 1492.03 38.2714 1492.08 38.6235C1492.1 38.9809 1492.13 39.333 1492.13 39.6798C1492.1 40.0319 1492.1 40.3788 1492.06 40.7256C1492.01 41.0724 1491.94 41.4088 1491.85 41.7451H1491.86Z" fill="#393E46"/>
<path d="M1482.25 27.1541C1476.9 27.1541 1472.57 22.8185 1472.57 17.474C1472.57 12.1295 1476.9 7.79395 1482.25 7.79395C1487.59 7.79395 1491.93 12.1295 1491.93 17.474C1491.93 22.8185 1487.59 27.1541 1482.25 27.1541Z" fill="#D42B19"/>
<path opacity="0.2" d="M1482.9 24.6795H1481.6C1478.43 24.6795 1475.63 23.1345 1473.89 20.7539C1475.26 24.0279 1478.48 26.3244 1482.25 26.3244C1486.02 26.3244 1489.24 24.0226 1490.61 20.7539C1488.88 23.1345 1486.07 24.6795 1482.9 24.6795Z" fill="white"/>
<path opacity="0.2" d="M1482.25 7.79395C1476.9 7.79395 1472.57 12.1295 1472.57 17.474C1472.57 17.8629 1472.59 18.2465 1472.64 18.6249C1473.21 13.8216 1477.29 10.0957 1482.25 10.0957C1487.2 10.0957 1491.29 13.8216 1491.86 18.6249C1491.91 18.2465 1491.93 17.8629 1491.93 17.474C1491.93 12.1295 1487.59 7.79395 1482.25 7.79395Z" fill="black"/>
<path d="M1491.86 18.626C1491.83 17.2491 1491.56 15.9248 1491.06 14.7161C1490.56 13.5127 1489.84 12.4301 1488.94 11.5367C1487.17 9.73419 1484.72 8.70943 1482.25 8.71469C1479.77 8.70943 1477.33 9.73419 1475.56 11.5367C1474.67 12.4301 1473.95 13.5127 1473.44 14.7161C1472.95 15.9248 1472.67 17.2491 1472.64 18.626C1472.54 18.2949 1472.48 17.9533 1472.43 17.6065C1472.39 17.2596 1472.38 16.9128 1472.35 16.5607C1472.34 16.2086 1472.38 15.8565 1472.4 15.4991C1472.44 15.147 1472.51 14.8002 1472.57 14.4428C1472.89 13.045 1473.55 11.7101 1474.47 10.5698C1475.39 9.42939 1476.57 8.48871 1477.91 7.84758C1478 7.80554 1478.08 7.75824 1478.17 7.72671L1478.42 7.62686L1478.94 7.42717C1479.12 7.35359 1479.3 7.31681 1479.48 7.26426L1480.02 7.11711C1480.38 7.03828 1480.76 6.99624 1481.12 6.93318C1481.5 6.9069 1481.87 6.88588 1482.24 6.87012C1482.61 6.89114 1482.98 6.9069 1483.35 6.93318C1483.72 6.99624 1484.09 7.03828 1484.46 7.11711L1485 7.26426C1485.18 7.31681 1485.36 7.35359 1485.53 7.42717L1486.05 7.62686C1486.23 7.68993 1486.4 7.7635 1486.56 7.85284C1487.9 8.49397 1489.09 9.43465 1490.01 10.575C1490.93 11.7154 1491.59 13.0502 1491.91 14.4481C1491.97 14.8002 1492.03 15.1523 1492.08 15.5044C1492.1 15.8617 1492.13 16.2138 1492.13 16.5607C1492.1 16.9128 1492.1 17.2596 1492.06 17.6065C1492.01 17.9533 1491.94 18.2896 1491.85 18.626H1491.86Z" fill="#393E46"/>
<path d="M1482.25 73.3894C1476.9 73.3894 1472.57 69.0539 1472.57 63.7094C1472.57 58.3648 1476.9 54.0293 1482.25 54.0293C1487.59 54.0293 1491.93 58.3648 1491.93 63.7094C1491.93 69.0539 1487.59 73.3894 1482.25 73.3894Z" fill="#79A527"/>
<path opacity="0.2" d="M1482.9 70.9149H1481.6C1478.43 70.9149 1475.63 69.3699 1473.89 66.9893C1475.26 70.2632 1478.48 72.5598 1482.25 72.5598C1486.02 72.5598 1489.24 70.258 1490.61 66.9893C1488.88 69.3699 1486.07 70.9149 1482.9 70.9149Z" fill="white"/>
<path opacity="0.2" d="M1482.25 54.0293C1476.9 54.0293 1472.57 58.3648 1472.57 63.7094C1472.57 64.0982 1472.59 64.4819 1472.64 64.8602C1473.21 60.057 1477.29 56.3311 1482.25 56.3311C1487.2 56.3311 1491.29 60.057 1491.86 64.8602C1491.91 64.4819 1491.93 64.0982 1491.93 63.7094C1491.93 58.3648 1487.59 54.0293 1482.25 54.0293Z" fill="black"/>
<path d="M1491.86 64.8613C1491.83 63.4845 1491.56 62.1602 1491.06 60.9515C1490.56 59.748 1489.84 58.6655 1488.94 57.7721C1487.17 55.9695 1484.72 54.9448 1482.25 54.95C1479.77 54.9448 1477.33 55.9695 1475.56 57.7721C1474.67 58.6655 1473.95 59.748 1473.44 60.9515C1472.95 62.1602 1472.67 63.4845 1472.64 64.8613C1472.54 64.5302 1472.48 64.1887 1472.43 63.8418C1472.39 63.495 1472.38 63.1481 1472.35 62.796C1472.34 62.4439 1472.38 62.0918 1472.4 61.7345C1472.44 61.3824 1472.51 61.0355 1472.57 60.6782C1472.89 59.2803 1473.55 57.9455 1474.47 56.8051C1475.39 55.6647 1476.57 54.7241 1477.91 54.0829C1478 54.0409 1478.08 53.9936 1478.17 53.9621L1478.42 53.8622L1478.94 53.6625C1479.12 53.5889 1479.3 53.5522 1479.48 53.4996L1480.02 53.3525C1480.38 53.2736 1480.76 53.2316 1481.12 53.1685C1481.5 53.1423 1481.87 53.1212 1482.24 53.1055C1482.61 53.1265 1482.98 53.1423 1483.35 53.1685C1483.72 53.2316 1484.09 53.2736 1484.46 53.3525L1485 53.4996C1485.18 53.5522 1485.36 53.5889 1485.53 53.6625L1486.05 53.8622C1486.23 53.9253 1486.4 53.9988 1486.56 54.0882C1487.9 54.7293 1489.09 55.67 1490.01 56.8104C1490.93 57.9507 1491.59 59.2856 1491.91 60.6834C1491.97 61.0355 1492.03 61.3876 1492.08 61.7397C1492.1 62.0971 1492.13 62.4492 1492.13 62.796C1492.1 63.1481 1492.1 63.495 1492.06 63.8418C1492.01 64.1887 1491.94 64.525 1491.85 64.8613H1491.86Z" fill="#393E46"/>
</svg>
