<svg width="1440" height="231" viewBox="0 0 1440 231" fill="none" xmlns="http://www.w3.org/2000/svg">
<path d="M692.46 162.591L688.283 130.868H677.123V96.4979H678.502V93.3915H673.084V80H672.424V93.3915H668.678V82.4213H668.018V93.3915H645.446V96.4979H646.988V162.591H621.217V135H606.54V58.2383H607.883V54.4723H604.95V49.6511H601.575V47.8426V42.3277V37.5447H597.506V29H597.015H596.527V37.5447H594.334L593.006 42.3277H584.123V49.6511H560.876V54.4723H557.947V58.2383H559.29V108.183H539.839V157.251L518.254 146.4V98.7702H521.738V95.2723H515.61V85.7745H489.379V95.2723H480.81V85.7745H476.404V95.2723H471.998V85.7745H467.152V95.2723H457.02V98.7702H458.561V162.591H449.085V43.017H449.992V41.5021H451.545V37.3787H422.569V32.7872H423.51V31.4596H407.738V32.7872H408.679V37.3787H401.498V41.5021H403.05V43.017H404.044V162.591H396.21V121.57H356.415V162.591H349.954V30.166H345.173V33.6298L336.353 36.0766V33.8255H331.571V37.4043L322.751 39.8511V37.2723H317.97V41.1787L309.15 43.6298V41.4979H304.369V44.9532L295.549 47.4043V45.5702H290.768V162.591H284.044V107.289H259.136V150.63H233.599V113.672H230.452V101.536H232.32V100.315H224.055V96.4979H223.174V100.315H220.534V80.7234H219.87V100.315H216.428V101.536H218.456V113.672H201.6V141.864H185.194L180.248 162.591H159.431V60.5404H136.669V56.3404H137.962V54.8681H120.72V56.3404H122.078V60.5404V67.2936V147.583H111.341V117.247H115.159V114.502H88.1513V96.1745H82.9988V92.4085H71.4975V96.1745H62.1413V161.613H31.44V113.081H5.59125V151.413H0V190H5.59125H13.1287H17.1675H31.44H62.1413H71.4975H82.9988H88.1513H108.3H111.341H122.078H140.078H148.942H159.431H201.6H211.339H227.779H233.599H259.571H266.55H290.768H293.16H295.549H304.369H309.15H317.97H321.968H322.751H331.571H336.353H343.935H345.173H347.565H349.954H356.415H389.306H394.005H396.21H406.099H423.51H439.451H446.94H458.561H487.421H517.935H518.254H539.839H551.906H559.29H563.951H600.071H606.54H614.273H621.217H646.988H666.15H670.072H677.123H720V172.285V162.591H692.46Z" fill="white" fill-opacity="0.2"/>
<path d="M1412.46 162.591L1408.28 130.868H1397.12V96.4979H1398.5V93.3915H1393.08V80H1392.42V93.3915H1388.68V82.4213H1388.02V93.3915H1365.45V96.4979H1366.99V162.591H1341.22V135H1326.54V58.2383H1327.88V54.4723H1324.95V49.6511H1321.57V47.8426V42.3277V37.5447H1317.51V29H1317.02H1316.53V37.5447H1314.33L1313.01 42.3277H1304.12V49.6511H1280.88V54.4723H1277.95V58.2383H1279.29V108.183H1259.84V157.251L1238.25 146.4V98.7702H1241.74V95.2723H1235.61V85.7745H1209.38V95.2723H1200.81V85.7745H1196.4V95.2723H1192V85.7745H1187.15V95.2723H1177.02V98.7702H1178.56V162.591H1169.09V43.017H1169.99V41.5021H1171.54V37.3787H1142.57V32.7872H1143.51V31.4596H1127.74V32.7872H1128.68V37.3787H1121.5V41.5021H1123.05V43.017H1124.04V162.591H1116.21V121.57H1076.42V162.591H1069.95V30.166H1065.17V33.6298L1056.35 36.0766V33.8255H1051.57V37.4043L1042.75 39.8511V37.2723H1037.97V41.1787L1029.15 43.6298V41.4979H1024.37V44.9532L1015.55 47.4043V45.5702H1010.77V162.591H1004.04V107.289H979.136V150.63H953.599V113.672H950.452V101.536H952.32V100.315H944.055V96.4979H943.174V100.315H940.534V80.7234H939.87V100.315H936.428V101.536H938.456V113.672H921.6V141.864H905.194L900.248 162.591H879.431V60.5404H856.669V56.3404H857.962V54.8681H840.72V56.3404H842.078V60.5404V67.2936V147.583H831.341V117.247H835.159V114.502H808.151V96.1745H802.999V92.4085H791.498V96.1745H782.141V161.613H751.44V113.081H725.591V151.413H720V190H725.591H733.129H737.167H751.44H782.141H791.498H802.999H808.151H828.3H831.341H842.078H860.078H868.942H879.431H921.6H931.339H947.779H953.599H979.571H986.55H1010.77H1013.16H1015.55H1024.37H1029.15H1037.97H1041.97H1042.75H1051.57H1056.35H1063.93H1065.17H1067.57H1069.95H1076.42H1109.31H1114.01H1116.21H1126.1H1143.51H1159.45H1166.94H1178.56H1207.42H1237.94H1238.25H1259.84H1271.91H1279.29H1283.95H1320.07H1326.54H1334.27H1341.22H1366.99H1386.15H1390.07H1397.12H1440V172.285V162.591H1412.46Z" fill="white" fill-opacity="0.2"/>
<path d="M1440 190H0V231H1440V190Z" fill="#262D33"/>
<path d="M10.001 211.999H26.001" stroke="white" stroke-width="5" stroke-miterlimit="10"/>
<path d="M59.001 211.999H1408" stroke="white" stroke-width="5" stroke-miterlimit="10"/>
<path d="M1428.77 212.216H1439.99" stroke="white" stroke-width="5" stroke-miterlimit="10"/>
<path d="M1440 184H0V190H1440V184Z" fill="#505D68"/>
<path d="M467.447 200.861H496.885L491.668 195.539L483.54 164.414H480.792L472.486 196.202L467.447 200.861Z" fill="#FFC511"/>
<path d="M479.001 172.123L486.116 172.712L487.773 179.132L477.26 178.891L479.001 172.123Z" fill="white"/>
<path d="M474.414 188.244H490.101L491.979 195.291L472.354 195.954L474.414 188.244Z" fill="white"/>
<path d="M941.262 200.861H970.7L965.482 195.539L957.355 164.414H954.607L946.301 196.202L941.262 200.861Z" fill="#FFC511"/>
<path d="M952.115 172.124L959.229 172.713L960.887 179.133L950.373 178.892L952.115 172.124Z" fill="white"/>
<path d="M948.155 188.244H963.282L965.092 195.291L946.168 195.954L948.155 188.244Z" fill="white"/>
<path d="M1240.22 141.284H1275.26C1275.26 141.284 1278.75 142.492 1284.06 148.683L1288.31 154.273C1288.31 154.273 1291.62 158.504 1287.69 158.807H1223.82C1223.82 158.807 1220.46 157.447 1223.82 154.273L1240.21 141.284H1240.22Z" fill="#455A64"/>
<g opacity="0.1">
<path d="M1249.42 141.064L1228.87 161.606C1227.23 161.491 1225.61 161.375 1224.03 161.249L1244.2 141.085C1245.85 141.069 1247.61 141.059 1249.42 141.059L1249.42 141.064Z" fill="white"/>
<path d="M1283.27 141.064L1262.73 161.606C1261.08 161.491 1259.46 161.375 1257.89 161.249L1278.05 141.085C1279.71 141.069 1281.47 141.059 1283.27 141.059L1283.27 141.064Z" fill="white"/>
<path d="M1253.28 141.364L1232.9 161.738C1232.43 161.717 1231.96 161.696 1231.48 161.681L1252.23 140.938C1252.56 141.07 1252.91 141.212 1253.28 141.364Z" fill="white"/>
<path d="M1264.66 141.364L1244.29 161.738C1243.81 161.717 1243.35 161.696 1242.87 161.681L1263.61 140.938C1263.94 141.07 1264.29 141.212 1264.66 141.364Z" fill="white"/>
</g>
<path d="M1205.19 172.913C1196.26 172.986 1189.12 180.249 1189.17 189.198C1189.22 197.996 1196.53 205.179 1205.38 205.132C1214.29 205.08 1221.45 197.806 1221.39 188.852C1221.34 180.049 1214.01 172.844 1205.18 172.913H1205.19Z" fill="black"/>
<path d="M1212 195.738C1215.71 192.028 1215.71 186.012 1212 182.301C1208.29 178.591 1202.27 178.591 1198.56 182.301C1194.85 186.012 1194.85 192.027 1198.56 195.738C1202.27 199.449 1208.29 199.449 1212 195.738Z" fill="#262D33"/>
<path d="M1205.28 195.341C1208.77 195.341 1211.6 192.511 1211.6 189.019C1211.6 185.528 1208.77 182.697 1205.28 182.697C1201.79 182.697 1198.96 185.528 1198.96 189.019C1198.96 192.511 1201.79 195.341 1205.28 195.341Z" fill="white"/>
<path d="M1285.09 172.913C1276.17 172.986 1269.02 180.249 1269.07 189.198C1269.12 197.996 1276.43 205.179 1285.28 205.132C1294.19 205.08 1301.35 197.806 1301.29 188.852C1301.24 180.049 1293.91 172.844 1285.08 172.913H1285.09Z" fill="black"/>
<path d="M1291.9 195.735C1295.61 192.025 1295.61 186.009 1291.9 182.298C1288.19 178.588 1282.18 178.588 1278.46 182.298C1274.75 186.009 1274.75 192.025 1278.46 195.735C1282.18 199.446 1288.19 199.446 1291.9 195.735Z" fill="#262D33"/>
<path d="M1285.18 195.341C1288.67 195.341 1291.51 192.511 1291.51 189.019C1291.51 185.528 1288.67 182.697 1285.18 182.697C1281.69 182.697 1278.86 185.528 1278.86 189.019C1278.86 192.511 1281.69 195.341 1285.18 195.341Z" fill="white"/>
<path d="M1316.89 167.132C1316.88 166.477 1316.8 165.843 1316.67 165.23C1315.72 160.823 1311.82 157.522 1307.14 157.433C1304.33 157.386 1301.52 157.391 1298.7 157.438C1297.84 157.454 1297.27 157.213 1296.71 156.542C1292.49 151.543 1288.16 146.638 1283.99 141.587C1281.02 137.987 1277.36 136.326 1272.67 136.378C1262.53 136.488 1252.39 136.441 1242.25 136.394C1238.82 136.378 1235.86 137.416 1233.24 139.622C1227.16 144.715 1220.97 149.662 1214.98 154.844C1212.76 156.767 1210.38 157.779 1207.52 158.25C1200.26 159.445 1193.02 160.818 1185.77 162.154C1180.81 163.066 1177.54 167.022 1177.5 172.084C1177.47 175.401 1177.44 178.718 1177.51 182.035C1177.62 187.018 1181.54 191.179 1186.49 191.645C1186.88 191.682 1187.28 191.651 1187.7 191.651C1185.83 179.991 1194.68 170.601 1205.27 170.664C1215.62 170.732 1224.45 179.944 1222.61 191.577H1267.31C1265.39 179.258 1275.29 170.213 1285.56 170.669C1295.64 171.125 1304.12 180.185 1302.3 191.52C1309.59 192.966 1316.7 187.38 1316.88 179.97C1316.91 178.907 1316.92 177.833 1316.93 176.769C1316.97 173.551 1316.94 170.339 1316.89 167.122V167.132ZM1260.47 153.576C1260.46 156.123 1259.2 157.407 1256.66 157.417C1251.58 157.443 1246.51 157.422 1241.44 157.422V157.47C1236.32 157.47 1231.2 157.464 1226.09 157.475C1225.16 157.475 1224.29 157.407 1223.95 156.369C1223.63 155.358 1224.19 154.724 1224.93 154.147C1229.61 150.474 1234.25 146.769 1238.97 143.148C1239.64 142.63 1240.63 142.279 1241.49 142.263C1246.61 142.179 1251.72 142.21 1256.84 142.226C1259.13 142.237 1260.44 143.562 1260.47 145.842C1260.49 148.42 1260.48 150.998 1260.47 153.581V153.576ZM1287.54 156.348C1287.26 156.883 1286.35 157.333 1285.7 157.37C1283.4 157.49 1281.09 157.417 1278.79 157.412C1276.4 157.412 1274 157.449 1271.61 157.407C1269.65 157.365 1268.28 156.055 1268.25 154.121C1268.18 151.271 1268.19 148.42 1268.24 145.564C1268.28 143.609 1269.61 142.299 1271.57 142.226C1272.72 142.184 1273.9 142.037 1275.01 142.268C1276.02 142.472 1277.2 142.886 1277.86 143.615C1281.04 147.131 1284.09 150.757 1287.11 154.409C1287.5 154.886 1287.79 155.897 1287.54 156.348Z" fill="white"/>
<path d="M1229.14 180.465V180.161C1229.14 179.683 1229.52 179.296 1229.99 179.296H1230.3V180.465H1230.74V181.317H1229.67L1230.3 181.451V182.553C1230.3 182.802 1230.38 183.014 1230.55 183.189C1230.72 183.364 1230.93 183.454 1231.19 183.459V184.641C1230.61 184.627 1230.12 184.42 1229.73 184.019C1229.34 183.618 1229.14 183.129 1229.14 182.553V182.507C1229.15 182.501 1229.15 182.496 1229.15 182.49H1229.14V181.317" fill="#080808"/>
<path d="M1233.28 179.255H1231.17C1231.15 179.255 1231.14 179.268 1231.14 179.285V180.409C1231.14 180.425 1231.15 180.439 1231.17 180.439H1233.11C1233.2 180.439 1233.28 180.515 1233.28 180.608V181.546C1233.28 181.563 1233.29 181.577 1233.31 181.577H1234.4C1234.42 181.577 1234.43 181.563 1234.43 181.546V179.533C1234.43 179.379 1234.31 179.255 1234.16 179.255H1233.28H1233.28Z" fill="#0461FE"/>
<path d="M1233.27 184.64H1231.76C1231.75 184.64 1231.74 184.628 1231.74 184.613V183.483C1231.74 183.468 1231.75 183.456 1231.76 183.456H1233.11C1233.2 183.456 1233.27 183.382 1233.27 183.29V182.151C1233.27 182.136 1233.29 182.124 1233.3 182.124H1234.41C1234.42 182.124 1234.43 182.136 1234.43 182.151V184.365C1234.43 184.517 1234.31 184.64 1234.16 184.64H1233.27L1233.27 184.64Z" fill="#0461FE"/>
<path d="M1237.67 180.243H1236.08V179.184H1240.49V180.243H1238.91V184.569H1237.67V180.243Z" fill="#080808"/>
<path d="M1241.95 180.696V181.188C1242.17 180.802 1242.54 180.553 1242.96 180.553C1243.11 180.553 1243.26 180.591 1243.41 180.651V181.657C1243.2 181.566 1242.95 181.521 1242.79 181.521C1242.31 181.521 1241.99 181.929 1241.99 182.512V184.569H1240.88V180.696H1241.95Z" fill="#080808"/>
<path d="M1246.99 180.696H1248.1V184.569H1246.99V184.032C1246.69 184.463 1246.24 184.72 1245.7 184.72C1244.63 184.72 1243.88 183.858 1243.88 182.632C1243.88 181.407 1244.63 180.545 1245.7 180.545C1246.24 180.545 1246.69 180.802 1246.99 181.233V180.696V180.696ZM1246.98 182.633C1246.98 182.005 1246.56 181.543 1245.99 181.543C1245.41 181.543 1245 182.005 1245 182.633C1245 183.261 1245.41 183.722 1245.99 183.722C1246.56 183.722 1246.98 183.261 1246.98 182.633Z" fill="#080808"/>
<path d="M1249.06 178.957H1250.17V182.126L1251.45 180.697H1252.8L1251.15 182.512L1252.85 184.569H1251.49L1250.17 182.905V184.569H1249.06V178.957H1249.06Z" fill="#080808"/>
<path d="M1253.58 185.341C1253.72 185.387 1253.9 185.417 1254.03 185.417C1254.51 185.417 1254.69 185.077 1254.86 184.608L1253.07 180.697H1254.29L1255.32 183.193L1256.16 180.697H1257.31L1255.85 184.706C1255.49 185.704 1255.09 186.317 1254.32 186.317C1254.08 186.317 1253.79 186.264 1253.58 186.181V185.341L1253.58 185.341Z" fill="#080808"/>
<path d="M1261.77 182.632C1261.77 183.865 1260.91 184.72 1259.66 184.72C1258.41 184.72 1257.56 183.865 1257.56 182.632C1257.56 181.4 1258.42 180.545 1259.66 180.545C1260.9 180.545 1261.77 181.392 1261.77 182.632ZM1260.65 182.632C1260.65 181.997 1260.25 181.543 1259.66 181.543C1259.08 181.543 1258.68 181.997 1258.68 182.632C1258.68 183.268 1259.08 183.722 1259.66 183.722C1260.24 183.722 1260.65 183.268 1260.65 182.632Z" fill="#080808"/>
<path d="M1248.62 163.012H1258.41C1259 163.012 1259.47 163.444 1259.47 163.972V164.154C1259.47 164.682 1259 165.114 1258.41 165.114H1248.62C1248.04 165.114 1247.56 164.682 1247.56 164.154V163.972C1247.56 163.444 1248.04 163.012 1248.62 163.012Z" fill="#455A64"/>
<path d="M1316.94 176.522L1314.84 177.03L1310.64 165.114H1316.69C1316.81 165.72 1316.88 166.346 1316.89 166.993C1316.94 170.166 1316.97 173.344 1316.94 176.522Z" fill="white"/>
<path d="M1185.76 170.58C1183.79 173.155 1180.86 174.227 1179.22 172.976C1177.58 171.72 1177.85 168.614 1179.82 166.034C1181.79 163.459 1184.72 162.387 1186.36 163.638C1188 164.888 1187.73 167.999 1185.76 170.58Z" fill="#595959"/>
<path d="M1185.15 169.974C1183.18 172.549 1180.25 173.621 1178.61 172.371C1176.97 171.115 1177.24 168.009 1179.21 165.428C1181.18 162.853 1184.11 161.781 1185.75 163.032C1187.39 164.288 1187.12 167.394 1185.15 169.974Z" fill="white"/>
<path d="M1382.92 186.417C1382.82 186.492 1382.68 186.555 1382.5 186.603L1361.66 192.232C1360.62 192.513 1361.13 193.151 1362.4 193.151H1405.37C1406.62 193.151 1407.14 192.529 1406.13 192.243L1384.84 186.237C1384.19 186.056 1383.28 186.141 1382.92 186.417Z" fill="#9297A2"/>
<path d="M1386.34 76.7998H1382.83V186.842H1386.34V76.7998Z" fill="#9A9EA5"/>
<path d="M1396.65 0H1371.85C1369.39 0 1367.4 1.99049 1367.4 4.44589V77.2723C1367.4 79.7277 1369.39 81.7181 1371.85 81.7181H1396.65C1399.11 81.7181 1401.1 79.7277 1401.1 77.2723V4.44589C1401.1 1.99049 1399.11 0 1396.65 0Z" fill="#04090D"/>
<path d="M1384.25 50.2732C1378.9 50.2732 1374.57 45.9377 1374.57 40.5931C1374.57 35.2486 1378.9 30.9131 1384.25 30.9131C1389.59 30.9131 1393.93 35.2486 1393.93 40.5931C1393.93 45.9377 1389.59 50.2732 1384.25 50.2732Z" fill="#FFC511"/>
<path opacity="0.2" d="M1384.9 47.7987H1383.6C1380.43 47.7987 1377.63 46.2536 1375.89 43.873C1377.26 47.147 1380.48 49.4435 1384.25 49.4435C1388.02 49.4435 1391.24 47.1418 1392.61 43.873C1390.88 46.2536 1388.07 47.7987 1384.9 47.7987Z" fill="white"/>
<path opacity="0.2" d="M1384.25 30.9131C1378.9 30.9131 1374.57 35.2486 1374.57 40.5931C1374.57 40.982 1374.59 41.3657 1374.64 41.744C1375.21 36.9408 1379.29 33.2149 1384.25 33.2149C1389.2 33.2149 1393.29 36.9408 1393.86 41.744C1393.91 41.3657 1393.93 40.982 1393.93 40.5931C1393.93 35.2486 1389.59 30.9131 1384.25 30.9131Z" fill="black"/>
<path d="M1393.86 41.7451C1393.83 40.3683 1393.56 39.0439 1393.06 37.8352C1392.56 36.6318 1391.84 35.5492 1390.94 34.6559C1389.17 32.8533 1386.72 31.8286 1384.25 31.8338C1381.77 31.8286 1379.33 32.8533 1377.56 34.6559C1376.67 35.5492 1375.95 36.6318 1375.44 37.8352C1374.95 39.0439 1374.67 40.3683 1374.64 41.7451C1374.54 41.414 1374.48 41.0724 1374.43 40.7256C1374.39 40.3788 1374.38 40.0319 1374.35 39.6798C1374.34 39.3277 1374.38 38.9756 1374.4 38.6183C1374.44 38.2662 1374.51 37.9193 1374.57 37.562C1374.89 36.1641 1375.55 34.8293 1376.47 33.6889C1377.39 32.5485 1378.57 31.6079 1379.91 30.9667C1380 30.9247 1380.08 30.8774 1380.17 30.8459L1380.42 30.746L1380.94 30.5463C1381.12 30.4727 1381.3 30.4359 1381.48 30.3834L1382.02 30.2363C1382.38 30.1574 1382.76 30.1154 1383.12 30.0523C1383.5 30.026 1383.87 30.005 1384.24 29.9893C1384.61 30.0103 1384.98 30.026 1385.35 30.0523C1385.72 30.1154 1386.09 30.1574 1386.46 30.2363L1387 30.3834C1387.18 30.4359 1387.36 30.4727 1387.53 30.5463L1388.05 30.746C1388.23 30.8091 1388.4 30.8826 1388.56 30.972C1389.9 31.6131 1391.09 32.5538 1392.01 33.6942C1392.93 34.8345 1393.59 36.1694 1393.91 37.5672C1393.97 37.9193 1394.03 38.2714 1394.08 38.6235C1394.1 38.9809 1394.13 39.333 1394.13 39.6798C1394.1 40.0319 1394.1 40.3788 1394.06 40.7256C1394.01 41.0724 1393.94 41.4088 1393.85 41.7451H1393.86Z" fill="#393E46"/>
<path d="M1384.25 27.1541C1378.9 27.1541 1374.57 22.8185 1374.57 17.474C1374.57 12.1295 1378.9 7.79395 1384.25 7.79395C1389.59 7.79395 1393.93 12.1295 1393.93 17.474C1393.93 22.8185 1389.59 27.1541 1384.25 27.1541Z" fill="#D42B19"/>
<path opacity="0.2" d="M1384.9 24.6795H1383.6C1380.43 24.6795 1377.63 23.1345 1375.89 20.7539C1377.26 24.0279 1380.48 26.3244 1384.25 26.3244C1388.02 26.3244 1391.24 24.0226 1392.61 20.7539C1390.88 23.1345 1388.07 24.6795 1384.9 24.6795Z" fill="white"/>
<path opacity="0.2" d="M1384.25 7.79395C1378.9 7.79395 1374.57 12.1295 1374.57 17.474C1374.57 17.8629 1374.59 18.2465 1374.64 18.6249C1375.21 13.8216 1379.29 10.0957 1384.25 10.0957C1389.2 10.0957 1393.29 13.8216 1393.86 18.6249C1393.91 18.2465 1393.93 17.8629 1393.93 17.474C1393.93 12.1295 1389.59 7.79395 1384.25 7.79395Z" fill="black"/>
<path d="M1393.86 18.626C1393.83 17.2491 1393.56 15.9248 1393.06 14.7161C1392.56 13.5127 1391.84 12.4301 1390.94 11.5367C1389.17 9.73419 1386.72 8.70943 1384.25 8.71469C1381.77 8.70943 1379.33 9.73419 1377.56 11.5367C1376.67 12.4301 1375.95 13.5127 1375.44 14.7161C1374.95 15.9248 1374.67 17.2491 1374.64 18.626C1374.54 18.2949 1374.48 17.9533 1374.43 17.6065C1374.39 17.2596 1374.38 16.9128 1374.35 16.5607C1374.34 16.2086 1374.38 15.8565 1374.4 15.4991C1374.44 15.147 1374.51 14.8002 1374.57 14.4428C1374.89 13.045 1375.55 11.7101 1376.47 10.5698C1377.39 9.42939 1378.57 8.48871 1379.91 7.84758C1380 7.80554 1380.08 7.75824 1380.17 7.72671L1380.42 7.62686L1380.94 7.42717C1381.12 7.35359 1381.3 7.31681 1381.48 7.26426L1382.02 7.11711C1382.38 7.03828 1382.76 6.99624 1383.12 6.93318C1383.5 6.9069 1383.87 6.88588 1384.24 6.87012C1384.61 6.89114 1384.98 6.9069 1385.35 6.93318C1385.72 6.99624 1386.09 7.03828 1386.46 7.11711L1387 7.26426C1387.18 7.31681 1387.36 7.35359 1387.53 7.42717L1388.05 7.62686C1388.23 7.68993 1388.4 7.7635 1388.56 7.85284C1389.9 8.49397 1391.09 9.43465 1392.01 10.575C1392.93 11.7154 1393.59 13.0502 1393.91 14.4481C1393.97 14.8002 1394.03 15.1523 1394.08 15.5044C1394.1 15.8617 1394.13 16.2138 1394.13 16.5607C1394.1 16.9128 1394.1 17.2596 1394.06 17.6065C1394.01 17.9533 1393.94 18.2896 1393.85 18.626H1393.86Z" fill="#393E46"/>
<path d="M1384.25 73.3894C1378.9 73.3894 1374.57 69.0539 1374.57 63.7094C1374.57 58.3648 1378.9 54.0293 1384.25 54.0293C1389.59 54.0293 1393.93 58.3648 1393.93 63.7094C1393.93 69.0539 1389.59 73.3894 1384.25 73.3894Z" fill="#79A527"/>
<path opacity="0.2" d="M1384.9 70.9149H1383.6C1380.43 70.9149 1377.63 69.3699 1375.89 66.9893C1377.26 70.2632 1380.48 72.5598 1384.25 72.5598C1388.02 72.5598 1391.24 70.258 1392.61 66.9893C1390.88 69.3699 1388.07 70.9149 1384.9 70.9149Z" fill="white"/>
<path opacity="0.2" d="M1384.25 54.0293C1378.9 54.0293 1374.57 58.3648 1374.57 63.7094C1374.57 64.0982 1374.59 64.4819 1374.64 64.8602C1375.21 60.057 1379.29 56.3311 1384.25 56.3311C1389.2 56.3311 1393.29 60.057 1393.86 64.8602C1393.91 64.4819 1393.93 64.0982 1393.93 63.7094C1393.93 58.3648 1389.59 54.0293 1384.25 54.0293Z" fill="black"/>
<path d="M1393.86 64.8613C1393.83 63.4845 1393.56 62.1602 1393.06 60.9515C1392.56 59.748 1391.84 58.6655 1390.94 57.7721C1389.17 55.9695 1386.72 54.9448 1384.25 54.95C1381.77 54.9448 1379.33 55.9695 1377.56 57.7721C1376.67 58.6655 1375.95 59.748 1375.44 60.9515C1374.95 62.1602 1374.67 63.4845 1374.64 64.8613C1374.54 64.5302 1374.48 64.1887 1374.43 63.8418C1374.39 63.495 1374.38 63.1481 1374.35 62.796C1374.34 62.4439 1374.38 62.0918 1374.4 61.7345C1374.44 61.3824 1374.51 61.0355 1374.57 60.6782C1374.89 59.2803 1375.55 57.9455 1376.47 56.8051C1377.39 55.6647 1378.57 54.7241 1379.91 54.0829C1380 54.0409 1380.08 53.9936 1380.17 53.9621L1380.42 53.8622L1380.94 53.6625C1381.12 53.5889 1381.3 53.5522 1381.48 53.4996L1382.02 53.3525C1382.38 53.2736 1382.76 53.2316 1383.12 53.1685C1383.5 53.1423 1383.87 53.1212 1384.24 53.1055C1384.61 53.1265 1384.98 53.1423 1385.35 53.1685C1385.72 53.2316 1386.09 53.2736 1386.46 53.3525L1387 53.4996C1387.18 53.5522 1387.36 53.5889 1387.53 53.6625L1388.05 53.8622C1388.23 53.9253 1388.4 53.9988 1388.56 54.0882C1389.9 54.7293 1391.09 55.67 1392.01 56.8104C1392.93 57.9507 1393.59 59.2856 1393.91 60.6834C1393.97 61.0355 1394.03 61.3876 1394.08 61.7397C1394.1 62.0971 1394.13 62.4492 1394.13 62.796C1394.1 63.1481 1394.1 63.495 1394.06 63.8418C1394.01 64.1887 1393.94 64.525 1393.85 64.8613H1393.86Z" fill="#393E46"/>
</svg>
