<svg width="32" height="32" viewBox="0 0 32 32" fill="none" xmlns="http://www.w3.org/2000/svg">
<path opacity="0.2" d="M15.9993 29.3327C9.71396 29.3327 6.57126 29.3327 4.61864 27.3801C2.66602 25.4274 2.66602 22.2847 2.66602 15.9993C2.66602 9.71396 2.66602 6.57126 4.61864 4.61864C6.57126 2.66602 9.71396 2.66602 15.9993 2.66602C22.2847 2.66602 25.4274 2.66602 27.3801 4.61864C29.3327 6.57126 29.3327 9.71396 29.3327 15.9993C29.3327 22.2847 29.3327 25.4274 27.3801 27.3801C25.4274 29.3327 22.2847 29.3327 15.9993 29.3327Z" fill="#0461FE"/>
<path d="M20 17C20.5523 17 21 16.5523 21 16C21 15.4477 20.5523 15 20 15H12C11.4477 15 11 15.4477 11 16C11 16.5523 11.4477 17 12 17H20Z" fill="#0461FE"/>
</svg>
