<svg width="20" height="20" viewBox="0 0 20 20" fill="none" xmlns="http://www.w3.org/2000/svg">
<path fill-rule="evenodd" clip-rule="evenodd" d="M2.70898 18.334C2.70898 17.9888 2.98881 17.709 3.33398 17.709H16.6673C17.0125 17.709 17.2923 17.9888 17.2923 18.334C17.2923 18.6792 17.0125 18.959 16.6673 18.959H3.33398C2.98881 18.959 2.70898 18.6792 2.70898 18.334Z" fill="#0461FE"/>
<path d="M8.81143 13.1827C9.02355 13.0173 9.21596 12.8249 9.60072 12.4401L14.5313 7.50956C13.8602 7.23026 13.0654 6.77148 12.3138 6.0198C11.562 5.268 11.1031 4.47307 10.8239 3.80195L5.8932 8.73261L5.89318 8.73264C5.50843 9.11739 5.31603 9.30978 5.15058 9.52191C4.95541 9.77214 4.78807 10.0429 4.65155 10.3294C4.53581 10.5722 4.44977 10.8303 4.27769 11.3466L3.37028 14.0688C3.2856 14.3228 3.35172 14.6029 3.54107 14.7923C3.73042 14.9816 4.0105 15.0477 4.26455 14.963L6.98677 14.0556C7.50299 13.8836 7.76112 13.7975 8.00397 13.6818C8.29045 13.5453 8.5612 13.3779 8.81143 13.1827Z" fill="#0461FE"/>
<path d="M15.8995 6.14139C16.9233 5.11758 16.9233 3.45767 15.8995 2.43387C14.8757 1.41006 13.2157 1.41006 12.1919 2.43387L11.6006 3.02523C11.6087 3.04968 11.6171 3.07447 11.6258 3.09959C11.8426 3.72435 12.2515 4.54335 13.0209 5.3127C13.7902 6.08204 14.6092 6.49101 15.234 6.70776C15.259 6.71643 15.2837 6.72479 15.308 6.73286L15.8995 6.14139Z" fill="#0461FE"/>
</svg>
