<svg width="32" height="32" viewBox="0 0 32 32" fill="none" xmlns="http://www.w3.org/2000/svg">
<path opacity="0.2" d="M7.99935 2.66602H23.9993C26.9449 2.66602 29.3327 5.05383 29.3327 7.99935V23.9993C29.3327 26.9449 26.9449 29.3327 23.9994 29.3327H7.99935C5.05383 29.3327 2.66602 26.9449 2.66602 23.9994V7.99935C2.66602 5.05383 5.05383 2.66602 7.99935 2.66602Z" fill="#0461FE"/>
<path fill-rule="evenodd" clip-rule="evenodd" d="M16.9993 10.666C16.9993 10.1137 16.5516 9.66602 15.9993 9.66602C15.4471 9.66602 14.9993 10.1137 14.9993 10.666V14.9993H10.666C10.1137 14.9993 9.66602 15.4471 9.66602 15.9993C9.66602 16.5516 10.1137 16.9993 10.666 16.9993H14.9993V21.3327C14.9993 21.885 15.4471 22.3327 15.9993 22.3327C16.5516 22.3327 16.9993 21.885 16.9993 21.3327V16.9993H21.3327C21.885 16.9993 22.3327 16.5516 22.3327 15.9993C22.3327 15.4471 21.885 14.9993 21.3327 14.9993H16.9993V10.666Z" fill="#0461FE"/>
</svg>
