<svg width="48" height="48" viewBox="0 0 48 48" fill="none" xmlns="http://www.w3.org/2000/svg">
<path fill-rule="evenodd" clip-rule="evenodd" d="M8.1579 0H39.8422C44.3248 0 48 3.67517 48 8.15775V39.8421C48 44.3247 44.3248 47.9998 39.8422 47.9998H8.1579C3.67531 47.9998 0.000157157 44.3247 0.000157157 39.8421V8.18558C-0.027685 3.67516 3.64747 0 8.1579 0Z" fill="#5999C3"/>
<path fill-rule="evenodd" clip-rule="evenodd" d="M24.0001 47.8327H6.93286C6.73796 39.1181 13.4479 34.0508 19.2112 32.1575C19.6846 29.7353 19.5454 26.5613 19.5454 26.5613H23.9722H28.3992C28.3992 26.5613 28.2878 29.7074 28.7611 32.1575C34.5244 34.0508 41.2344 39.1181 41.0395 47.8327H24.0001Z" fill="#E4AE7C"/>
<path fill-rule="evenodd" clip-rule="evenodd" d="M28.4826 29.7075C27.9258 30.7655 26.0047 31.7678 24 31.7957C22.0511 31.8235 20.0743 30.8769 19.5175 29.8467C19.5731 29.0393 19.601 28.2876 19.601 27.7029H28.4548C28.4269 28.2597 28.4269 28.9558 28.4826 29.7075Z" fill="#D67F54"/>
<path fill-rule="evenodd" clip-rule="evenodd" d="M14.5894 19.6005C14.5616 19.1551 12.6962 18.5982 12.0558 20.1017C11.4433 21.6052 12.557 23.7212 14.673 23.8604C16.789 24.0274 16.1764 23.6655 16.1764 23.6655L14.5894 19.6005Z" fill="#E4AE7C"/>
<path fill-rule="evenodd" clip-rule="evenodd" d="M24 47.8325H23.3596H22.7193H22.0789H21.4385H20.7982H20.1578H19.5174H18.877H18.3202H17.6798H17.0395H16.3991H15.8144H15.174H14.5337H13.8933H13.3086H12.6683H12.0279H11.3875H10.7471H10.1068H9.46641H8.82605H8.18566H7.5453H6.90493H6.82141C6.65436 40.7606 11.0256 36.1109 15.7587 33.5773C15.9815 33.4659 16.2042 33.3546 16.3991 33.2432C17.29 32.7977 18.2088 32.4358 19.0998 32.1574C19.1276 32.046 19.1555 31.9068 19.1555 31.7954C21.0766 32.6585 24.6961 33.5773 28.594 31.9068C28.6218 31.9903 28.6218 32.0738 28.6496 32.1574C29.5127 32.4358 30.4037 32.7977 31.2946 33.2432C31.5174 33.3546 31.7401 33.4659 31.9907 33.6051C36.7238 36.1388 41.0672 40.7884 40.9002 47.8325H40.8166H40.1763H39.5359H38.8955H38.2552H37.8097H37.1693H36.529H35.8886H35.3039H34.6635H34.0232H33.3828H32.7981H32.1577H31.5174H30.877H30.2366H29.5963H28.9559H28.3155H27.6752H27.0348H26.3944H25.7541H25.1137H24.4733H24Z" fill="#575756"/>
<path fill-rule="evenodd" clip-rule="evenodd" d="M33.4106 19.6005C33.4385 19.1551 35.3039 18.5982 35.9443 20.1017C36.5568 21.6052 35.4431 23.7212 33.3271 23.8604C31.2111 24.0274 31.8236 23.6655 31.8236 23.6655L33.4106 19.6005Z" fill="#E4AE7C"/>
<path fill-rule="evenodd" clip-rule="evenodd" d="M24 29.624C13.0024 29.8746 7.43397 2.75633 24 3.45238C40.5383 2.78417 34.9977 29.9024 24 29.624Z" fill="#E4AE7C"/>
<path fill-rule="evenodd" clip-rule="evenodd" d="M35.2761 21.2714C35.2761 21.3271 35.2204 21.3828 35.1648 21.3828C35.1091 21.3828 35.0534 21.3271 35.0534 21.2714C35.0534 20.9094 34.9977 20.6867 34.8863 20.5475C34.8307 20.464 34.7471 20.4361 34.6636 20.4361C34.5522 20.4361 34.4409 20.464 34.3295 20.5475C34.0232 20.7146 33.6891 21.1043 33.5221 21.522C33.4385 21.7169 33.355 21.9118 33.3272 22.0788C33.5221 21.9396 33.717 21.9118 33.884 21.9118C33.9676 21.9118 34.0789 21.9396 34.1346 21.9953C34.2181 22.051 34.2738 22.1345 34.3017 22.218C34.3573 22.3851 34.3016 22.6078 34.1346 22.8584C34.1068 22.9141 34.0232 22.9141 33.9676 22.8862C33.9119 22.8584 33.9119 22.7749 33.9397 22.7192C34.0789 22.5243 34.1068 22.3851 34.0789 22.2737C34.0789 22.218 34.0511 22.1902 33.9954 22.1623C33.9675 22.1345 33.9119 22.1067 33.8562 22.1067C33.6891 22.0788 33.5221 22.1623 33.355 22.3294C33.2993 22.3851 33.2715 22.3851 33.2436 22.4129C33.1601 22.4408 33.1044 22.3851 33.0766 22.3016C33.0766 22.2737 33.0766 22.218 33.0766 22.1623C33.1044 21.9953 33.2158 21.689 33.3272 21.4106C33.5221 20.9651 33.884 20.5475 34.246 20.3248C34.3852 20.2412 34.5522 20.1855 34.6914 20.1855C34.8585 20.1855 34.9977 20.2412 35.0812 20.3804C35.1926 20.5753 35.2761 20.8538 35.2761 21.2714Z" fill="#D67F54"/>
<path fill-rule="evenodd" clip-rule="evenodd" d="M12.9468 21.2714C12.9468 21.3271 12.8911 21.3828 12.8354 21.3828C12.7797 21.3828 12.7241 21.3271 12.7241 21.2714C12.7241 20.8537 12.8076 20.5753 12.9468 20.4083C13.0582 20.2691 13.1974 20.2134 13.3366 20.2134C13.4758 20.2134 13.6428 20.2691 13.7821 20.3526C14.144 20.5475 14.5059 20.9651 14.7008 21.4384C14.8122 21.7169 14.9236 22.0231 14.9514 22.1902C14.9514 22.2459 14.9514 22.3015 14.9514 22.3294C14.9236 22.4129 14.8679 22.4686 14.7844 22.4407C14.7565 22.4407 14.7009 22.4129 14.673 22.3572C14.506 22.1902 14.311 22.1345 14.1718 22.1345C14.1162 22.1345 14.0605 22.1623 14.0326 22.1902C14.0048 22.218 13.9769 22.2459 13.9491 22.3015C13.9213 22.4129 13.9491 22.5521 14.0883 22.747C14.1162 22.8027 14.1162 22.8862 14.0605 22.9141C14.0048 22.9419 13.9213 22.9419 13.8934 22.8862C13.7264 22.6356 13.6707 22.4129 13.7264 22.2459C13.7542 22.1623 13.8099 22.0788 13.8934 22.0231C13.9769 21.9674 14.0605 21.9396 14.144 21.9396C14.3111 21.9118 14.5059 21.9674 14.7008 22.1066C14.6452 21.9396 14.5895 21.7447 14.5059 21.5498C14.3389 21.1322 14.0048 20.7702 13.6985 20.5753C13.5872 20.5196 13.4758 20.464 13.3644 20.464C13.2809 20.464 13.1974 20.4918 13.1417 20.5753C13.0025 20.6588 12.9468 20.9094 12.9468 21.2714Z" fill="#D67F54"/>
<path fill-rule="evenodd" clip-rule="evenodd" d="M11.5546 42.9047C11.5546 42.7934 11.6381 42.7377 11.7216 42.7377C11.833 42.7377 11.8887 42.8212 11.8887 42.9047L11.833 47.8328C11.833 47.9442 11.7495 47.9998 11.6659 47.9998C11.5546 47.9998 11.4989 47.9163 11.4989 47.8328L11.5546 42.9047Z" fill="#383546"/>
<path fill-rule="evenodd" clip-rule="evenodd" d="M36.1112 42.9047C36.1112 42.7934 36.1947 42.7377 36.2782 42.7377C36.3896 42.7377 36.4453 42.8212 36.4453 42.9047L36.3896 47.8328C36.3896 47.9442 36.3061 47.9998 36.2225 47.9998C36.1112 47.9998 36.0555 47.9163 36.0555 47.8328L36.1112 42.9047Z" fill="#383546"/>
<path fill-rule="evenodd" clip-rule="evenodd" d="M13.8098 17.5962C13.949 17.0394 14.1996 15.3688 14.1996 15.6473C14.4502 20.6588 16.427 23.9442 18.2367 25.392C20.0186 26.812 17.2344 21.8561 23.8051 21.9396C23.8608 21.9396 23.9165 21.9396 23.9722 21.9396C24.0279 21.9396 24.0836 21.9396 24.1393 21.9396C30.6822 21.8839 27.8979 26.812 29.7077 25.392C31.5174 23.9442 33.4664 20.6588 33.7448 15.6473C33.7448 15.3967 33.9954 17.0394 34.1346 17.5962C33.1044 23.8328 29.123 29.7632 23.9722 29.6518C18.8214 29.7632 14.8678 23.8328 13.8098 17.5962Z" fill="#784928"/>
<path fill-rule="evenodd" clip-rule="evenodd" d="M14.1995 19.4057C14.3388 19.0159 14.4223 18.2085 14.3944 17.1505C14.3666 15.6748 16.3991 14.9788 16.1485 12.8628C15.4246 6.70966 20.2134 8.79782 23.9721 8.79782V3.45213C14.4501 3.06234 12.2506 11.9161 14.1995 19.4057Z" fill="#784928"/>
<path fill-rule="evenodd" clip-rule="evenodd" d="M33.8004 19.2948C33.689 18.8772 33.6055 18.1254 33.5777 17.1788C33.522 15.7032 31.5731 15.0071 31.8236 12.8911C32.5475 6.738 27.7587 8.82616 24 8.82616V3.48047C33.4663 3.06284 35.6937 11.8053 33.8004 19.2948Z" fill="#784928"/>
<path fill-rule="evenodd" clip-rule="evenodd" d="M20.2971 17.0394C20.7425 17.3456 20.8261 17.986 20.5198 18.4036C20.2136 18.8491 19.5732 18.9326 19.1555 18.6264C18.7101 18.3201 18.6265 17.6797 18.9328 17.2621C19.2391 16.8166 19.8516 16.7331 20.2971 17.0394Z" fill="#20201E"/>
<path fill-rule="evenodd" clip-rule="evenodd" d="M27.7587 17.0394C27.3132 17.3456 27.2297 17.986 27.536 18.4036C27.8422 18.8491 28.4826 18.9326 28.9002 18.6264C29.3457 18.3201 29.4292 17.6797 29.123 17.2621C28.8167 16.8166 28.1763 16.7331 27.7587 17.0394Z" fill="#20201E"/>
<path fill-rule="evenodd" clip-rule="evenodd" d="M19.0719 20.6309C19.6287 21.0486 19.6566 21.6889 19.1276 22.0509C18.5986 22.385 17.7076 22.3293 17.1508 21.9117C16.5939 21.4941 16.5661 20.8537 17.0951 20.4917C17.6241 20.1298 18.5151 20.1855 19.0719 20.6309Z" fill="#DA9077"/>
<path fill-rule="evenodd" clip-rule="evenodd" d="M28.956 20.6309C28.3991 21.0486 28.3713 21.6889 28.9003 22.0509C29.4293 22.385 30.3202 22.3293 30.8771 21.9117C31.4339 21.4941 31.4617 20.8537 30.9327 20.4917C30.4037 20.1298 29.5128 20.1855 28.956 20.6309Z" fill="#DA9077"/>
<path fill-rule="evenodd" clip-rule="evenodd" d="M20.7146 14.3662C20.6868 14.3383 20.6311 14.3383 20.6033 14.3105C20.1856 14.1434 19.7958 14.1156 19.3504 14.1434C18.9049 14.1991 18.5429 14.2826 18.181 14.5054C18.0139 14.6168 17.3179 15.1736 17.5128 15.3963C17.5963 15.4242 18.2923 15.0622 18.4872 15.0065C18.7935 14.923 19.0719 14.8673 19.406 14.8952C19.7123 14.923 19.9629 14.9509 20.2413 15.0622C20.2413 15.0622 20.297 15.0901 20.3248 15.0901C20.9095 15.3685 20.8538 15.5634 21.2436 15.285C21.8283 14.9509 21.1879 14.6168 20.7146 14.3662Z" fill="#3F2716"/>
<path fill-rule="evenodd" clip-rule="evenodd" d="M27.2575 14.3662C27.2854 14.3383 27.3411 14.3383 27.3689 14.3105C27.7865 14.1434 28.1763 14.1156 28.6218 14.1434C29.0673 14.1991 29.4292 14.2826 29.7912 14.5054C29.9582 14.6168 30.6543 15.1736 30.4594 15.3963C30.3758 15.4242 29.6798 15.0622 29.4849 15.0065C29.1786 14.923 28.9002 14.8673 28.5661 14.8952C28.2599 14.923 28.0093 14.9509 27.7308 15.0622C27.7308 15.0622 27.6752 15.0901 27.6473 15.0901C27.0626 15.3685 27.1183 15.5634 26.7285 15.285C26.1717 14.9509 26.7842 14.6168 27.2575 14.3662Z" fill="#3F2716"/>
<path fill-rule="evenodd" clip-rule="evenodd" d="M23.471 26.0325C23.4153 26.0047 23.3875 25.9212 23.4153 25.8655C23.4432 25.8098 23.5267 25.7819 23.5824 25.8098C23.7495 25.8933 23.9443 25.949 24.1671 25.949C24.362 25.949 24.5847 25.8933 24.7518 25.8098C24.8074 25.7819 24.891 25.782 24.9188 25.8376C24.9467 25.8933 24.9467 25.9768 24.891 26.0047C24.6961 26.116 24.4455 26.1717 24.1949 26.1717C23.9165 26.1996 23.6659 26.1439 23.471 26.0325Z" fill="#D67F54"/>
<path fill-rule="evenodd" clip-rule="evenodd" d="M23.8886 21.7165C23.8329 21.7165 23.7772 21.6608 23.7772 21.6051C23.7772 21.5494 23.8329 21.4937 23.8886 21.4937C24.167 21.4937 24.529 21.4937 24.7795 21.438C25.0023 21.4102 25.1693 21.3545 25.1693 21.2431C25.1693 20.909 24.8352 18.7652 24.8074 18.7652C24.8074 18.7095 24.8352 18.626 24.9188 18.626C24.9744 18.626 25.058 18.6538 25.058 18.7374C25.058 18.7374 25.4199 20.909 25.4199 21.2431C25.4199 21.4937 25.1693 21.6051 24.8352 21.6608C24.5568 21.7165 24.1949 21.7165 23.8886 21.7165Z" fill="#D67F54"/>
<path fill-rule="evenodd" clip-rule="evenodd" d="M19.4617 14.7561C20.4362 14.7561 21.3271 15.1459 21.9675 15.7863C22.6079 16.4266 22.9977 17.3176 22.9977 18.2921C22.9977 19.2665 22.6079 20.1575 21.9675 20.7978C21.3271 21.4382 20.4362 21.828 19.4617 21.828C18.4872 21.828 17.5963 21.4382 16.9559 20.7978C16.3156 20.1575 15.9258 19.2665 15.9258 18.2921C15.9258 17.3176 16.3156 16.4266 16.9559 15.7863C17.6241 15.1737 18.4872 14.7561 19.4617 14.7561ZM21.5499 16.2317C21.0209 15.7027 20.297 15.3686 19.4896 15.3686C18.6821 15.3686 17.9582 15.7027 17.4292 16.2317C16.9002 16.7607 16.5661 17.4846 16.5661 18.2921C16.5661 19.0995 16.9002 19.8234 17.4292 20.3524C17.9582 20.8814 18.6821 21.2155 19.4896 21.2155C20.297 21.2155 21.0209 20.8814 21.5499 20.3524C22.0789 19.8234 22.413 19.0995 22.413 18.2921C22.3852 17.4846 22.0789 16.7607 21.5499 16.2317Z" fill="#2E1E11"/>
<path fill-rule="evenodd" clip-rule="evenodd" d="M28.5104 14.7561C29.4848 14.7561 30.3758 15.1459 31.0162 15.7863C31.6565 16.4266 32.0463 17.3176 32.0463 18.2921C32.0463 19.2665 31.6565 20.1575 31.0162 20.7978C30.3758 21.4382 29.4848 21.828 28.5104 21.828C27.5359 21.828 26.6449 21.4382 26.0046 20.7978C25.3642 20.1575 24.9744 19.2665 24.9744 18.2921C24.9744 17.3176 25.3642 16.4266 26.0046 15.7863C26.6449 15.1737 27.5359 14.7561 28.5104 14.7561ZM30.5707 16.2317C30.0417 15.7027 29.3178 15.3686 28.5104 15.3686C27.7029 15.3686 26.9791 15.7027 26.4501 16.2317C25.9211 16.7607 25.5869 17.4846 25.5869 18.2921C25.5869 19.0995 25.9211 19.8234 26.4501 20.3524C26.9791 20.8814 27.7029 21.2155 28.5104 21.2155C29.3178 21.2155 30.0417 20.8814 30.5707 20.3524C31.0997 19.8234 31.4338 19.0995 31.4338 18.2921C31.4338 17.4846 31.0997 16.7607 30.5707 16.2317Z" fill="#2E1E11"/>
<path fill-rule="evenodd" clip-rule="evenodd" d="M16.1487 18.0138C16.26 17.9581 16.3992 18.0417 16.4549 18.153C16.5106 18.2644 16.4271 18.4036 16.3157 18.4593L14.2275 19.211C14.1162 19.2667 13.977 19.1832 13.9213 19.0718C13.8656 18.9604 13.9491 18.8212 14.0605 18.7656L16.1487 18.0138Z" fill="#2E1E11"/>
<path fill-rule="evenodd" clip-rule="evenodd" d="M31.6845 18.4593C31.5731 18.4036 31.4896 18.2922 31.5453 18.153C31.6009 18.0417 31.7123 17.9581 31.8515 18.0138L33.9397 18.7656C34.051 18.8212 34.1346 18.9326 34.0789 19.0718C34.0232 19.1832 33.9118 19.2667 33.7726 19.211L31.6845 18.4593Z" fill="#2E1E11"/>
<path fill-rule="evenodd" clip-rule="evenodd" d="M22.7472 18.0135C22.6915 18.1249 22.5244 18.1527 22.4131 18.097C22.3017 18.0414 22.2739 17.8743 22.3295 17.7629C22.3295 17.7629 22.7472 17.0669 23.9722 17.0669C25.2251 17.0669 25.6149 17.7629 25.6149 17.7629C25.6706 17.8743 25.6428 18.0135 25.5314 18.097C25.42 18.1527 25.2808 18.1249 25.1973 18.0135C25.1973 18.0135 24.9189 17.568 23.9444 17.568C23.0256 17.568 22.7472 18.0135 22.7472 18.0135Z" fill="#2E1E11"/>
<path fill-rule="evenodd" clip-rule="evenodd" d="M27.7309 22.8584C26.2274 23.4152 21.6892 23.4152 20.2692 22.9141C21.0488 25.754 26.9513 25.6983 27.7309 22.8584Z" fill="white"/>
<path fill-rule="evenodd" clip-rule="evenodd" d="M14.5616 8.96475C15.2855 9.07612 16.6776 9.10396 17.4015 8.85338C18.9606 8.01812 20.6868 9.07612 23.9722 9.04827C25.4757 9.04827 29.4571 8.71417 30.8492 7.09933C31.5453 6.2919 31.1833 7.68401 29.8469 8.6028C30.6265 8.90906 32.4362 9.24317 33.4107 8.9926C31.9908 5.6237 29.0116 3.25711 23.9722 3.452C18.9885 3.25711 15.9815 5.59585 14.5616 8.96475Z" fill="#231A11"/>
<path fill-rule="evenodd" clip-rule="evenodd" d="M17.819 32.6027C17.819 32.4078 17.986 32.2407 18.1809 32.2407C18.3758 32.2407 18.5429 32.4078 18.5429 32.6027C18.5429 34.7744 19.2668 37.1966 20.3526 39.0064C21.3549 40.6212 22.6357 41.7627 23.9999 41.7627C25.392 41.7627 26.7006 40.6769 27.7029 39.0342C28.7888 37.2801 29.4848 34.8857 29.4848 32.6027C29.4848 32.4078 29.6519 32.2407 29.8468 32.2407C30.0417 32.2407 30.2087 32.4078 30.2087 32.6027C30.2087 35.0249 29.4848 37.5307 28.3433 39.3961C27.2296 41.2337 25.6983 42.4588 24.0278 42.4588C22.3851 42.4588 20.8816 41.2059 19.7679 39.3683C18.5707 37.475 17.819 34.9136 17.819 32.6027Z" fill="#D57B19"/>
</svg>
