<svg width="48" height="48" viewBox="0 0 48 48" fill="none" xmlns="http://www.w3.org/2000/svg">
<path fill-rule="evenodd" clip-rule="evenodd" d="M0 24V38C0 43.5228 4.47715 48 10 48H24H38C43.5228 48 48 43.5229 48 38V24V10C48 4.47715 43.5229 0 38 0H24H10C4.47715 0 0 4.47715 0 10V24Z" fill="#0461FE"/>
<rect x="12" y="12" width="24" height="24" rx="5" fill="white"/>
<path fill-rule="evenodd" clip-rule="evenodd" d="M28.5249 14H28.5932C29.477 14 30.1897 14 30.7635 14.0545C31.3552 14.1108 31.8707 14.23 32.3343 14.514C32.8037 14.8017 33.1983 15.1963 33.486 15.6657C33.77 16.1293 33.8892 16.6448 33.9455 17.2365C34 17.8103 34 18.523 34 19.4068V19.4752C34 20.0559 34 20.5405 33.9626 20.9341C33.9235 21.3456 33.8386 21.7291 33.623 22.0808C33.4121 22.425 33.1227 22.7144 32.7785 22.9254C32.4267 23.1409 32.0433 23.2258 31.6318 23.2649C31.2382 23.3024 30.7535 23.3023 30.1728 23.3023L29.0679 23.3023C28.2321 23.3024 27.5352 23.3024 26.9819 23.228C26.3979 23.1495 25.8706 22.9768 25.4469 22.5531C25.0232 22.1294 24.8505 21.6021 24.772 21.0181C24.6976 20.4648 24.6976 19.7679 24.6977 18.9321L24.6977 17.8272C24.6977 17.2465 24.6976 16.7619 24.7351 16.3682C24.7742 15.9567 24.8591 15.5733 25.0746 15.2215C25.2856 14.8773 25.575 14.5879 25.9192 14.377C26.2709 14.1614 26.6544 14.0765 27.0659 14.0374C27.4595 14 27.9442 14 28.5249 14ZM29.3488 19.814C28.8694 19.814 28.6297 19.814 28.4604 19.6939C28.4007 19.6515 28.3485 19.5993 28.3061 19.5396C28.186 19.3703 28.186 19.1306 28.186 18.6512C28.186 18.1717 28.186 17.932 28.3061 17.7627C28.3485 17.703 28.4007 17.6509 28.4604 17.6085C28.6297 17.4884 28.8694 17.4884 29.3488 17.4884C29.8283 17.4884 30.068 17.4884 30.2373 17.6085C30.297 17.6509 30.3491 17.703 30.3915 17.7627C30.5116 17.932 30.5116 18.1717 30.5116 18.6512C30.5116 19.1306 30.5116 19.3703 30.3915 19.5396C30.3491 19.5993 30.297 19.6515 30.2373 19.6939C30.068 19.814 29.8283 19.814 29.3488 19.814Z" fill="#0461FE"/>
<path fill-rule="evenodd" clip-rule="evenodd" d="M22.0808 14.377C21.7291 14.1614 21.3456 14.0765 20.9341 14.0374C20.5405 14 20.0558 14 19.4751 14H19.4068C18.5231 14 17.8103 14 17.2365 14.0545C16.6448 14.1108 16.1293 14.23 15.6657 14.514C15.1963 14.8017 14.8017 15.1963 14.514 15.6657C14.23 16.1293 14.1108 16.6448 14.0545 17.2365C14 17.8103 14 18.523 14 19.4068V19.4751C14 20.0558 14 20.5405 14.0374 20.9341C14.0765 21.3456 14.1614 21.7291 14.377 22.0808C14.5879 22.425 14.8773 22.7144 15.2215 22.9254C15.5733 23.1409 15.9567 23.2258 16.3682 23.2649C16.7618 23.3024 17.2464 23.3023 17.8271 23.3023L18.9321 23.3023C19.7679 23.3024 20.4648 23.3024 21.0181 23.228C21.6021 23.1495 22.1294 22.9768 22.5531 22.5531C22.9768 22.1294 23.1495 21.6021 23.228 21.0181C23.3024 20.4648 23.3024 19.7679 23.3023 18.9321L23.3023 17.8273C23.3023 17.2466 23.3024 16.7618 23.2649 16.3682C23.2258 15.9567 23.1409 15.5733 22.9254 15.2215C22.7144 14.8773 22.425 14.5879 22.0808 14.377ZM17.7627 19.6939C17.932 19.814 18.1717 19.814 18.6512 19.814C19.1306 19.814 19.3703 19.814 19.5396 19.6939C19.5993 19.6515 19.6515 19.5993 19.6939 19.5396C19.814 19.3703 19.814 19.1306 19.814 18.6512C19.814 18.1717 19.814 17.932 19.6939 17.7627C19.6515 17.703 19.5993 17.6509 19.5396 17.6085C19.3703 17.4884 19.1306 17.4884 18.6512 17.4884C18.1717 17.4884 17.932 17.4884 17.7627 17.6085C17.703 17.6509 17.6509 17.703 17.6085 17.7627C17.4884 17.932 17.4884 18.1717 17.4884 18.6512C17.4884 19.1306 17.4884 19.3703 17.6085 19.5396C17.6509 19.5993 17.703 19.6515 17.7627 19.6939Z" fill="#0461FE"/>
<path fill-rule="evenodd" clip-rule="evenodd" d="M21.0181 24.772C21.6021 24.8505 22.1294 25.0232 22.5531 25.4469C22.9768 25.8706 23.1495 26.3979 23.228 26.9819C23.3024 27.5352 23.3024 28.2321 23.3023 29.0679L23.3023 30.1728C23.3023 30.7535 23.3024 31.2382 23.2649 31.6318C23.2258 32.0433 23.1409 32.4267 22.9254 32.7785C22.7144 33.1227 22.425 33.4121 22.0808 33.623C21.7291 33.8386 21.3456 33.9235 20.9341 33.9626C20.5405 34 20.0558 34 19.4751 34H19.4068C18.523 34 17.8103 34 17.2365 33.9455C16.6448 33.8892 16.1293 33.77 15.6657 33.486C15.1963 33.1983 14.8017 32.8037 14.514 32.3343C14.23 31.8707 14.1108 31.3552 14.0545 30.7635C14 30.1897 14 29.477 14 28.5932V28.5249C14 27.9442 14 27.4595 14.0374 27.0659C14.0765 26.6544 14.1614 26.2709 14.377 25.9192C14.5879 25.575 14.8773 25.2856 15.2215 25.0746C15.5733 24.8591 15.9567 24.7742 16.3682 24.7351C16.7618 24.6976 17.2465 24.6977 17.8272 24.6977L18.9321 24.6977C19.7679 24.6976 20.4648 24.6976 21.0181 24.772ZM18.6512 30.5116C18.1717 30.5116 17.932 30.5116 17.7627 30.3915C17.703 30.3491 17.6509 30.297 17.6085 30.2373C17.4884 30.068 17.4884 29.8283 17.4884 29.3488C17.4884 28.8694 17.4884 28.6297 17.6085 28.4604C17.6509 28.4007 17.703 28.3485 17.7627 28.3061C17.932 28.186 18.1717 28.186 18.6512 28.186C19.1306 28.186 19.3703 28.186 19.5396 28.3061C19.5993 28.3485 19.6515 28.4007 19.6939 28.4604C19.814 28.6297 19.814 28.8694 19.814 29.3488C19.814 29.8283 19.814 30.068 19.6939 30.2373C19.6515 30.297 19.5993 30.3491 19.5396 30.3915C19.3703 30.5116 19.1306 30.5116 18.6512 30.5116Z" fill="#0461FE"/>
<path d="M24.6977 28.6155V28.6512H26.093C26.093 27.9834 26.0939 27.5351 26.1286 27.1933C26.1622 26.8632 26.2216 26.7107 26.289 26.6098C26.3738 26.4828 26.4828 26.3738 26.6098 26.289C26.7107 26.2216 26.8632 26.1622 27.1933 26.1286C27.5351 26.0939 27.9834 26.093 28.6512 26.093H30.5116V24.6977H28.6155C27.9926 24.6977 27.4729 24.6976 27.0521 24.7404C26.6117 24.7853 26.203 24.8827 25.8346 25.1288C25.5553 25.3154 25.3154 25.5553 25.1288 25.8346C24.8827 26.203 24.7853 26.6117 24.7404 27.0521C24.6976 27.4729 24.6977 27.9926 24.6977 28.6155Z" fill="#0461FE"/>
<path d="M34 30.5351V30.5116H32.6046C32.6046 30.9546 32.6043 31.2519 32.5886 31.4821C32.5733 31.706 32.5459 31.8151 32.5161 31.8868C32.3981 32.1718 32.1718 32.3981 31.8868 32.5161C31.8151 32.5459 31.706 32.5733 31.4821 32.5886C31.2519 32.6043 30.9546 32.6046 30.5116 32.6046H28.6512V34H30.5351C30.9486 34 31.2937 34 31.5771 33.9807C31.8721 33.9606 32.1507 33.9172 32.4208 33.8053C33.0476 33.5456 33.5456 33.0476 33.8053 32.4208C33.9172 32.1507 33.9606 31.8721 33.9807 31.5771C34 31.2937 34 30.9486 34 30.5351Z" fill="#0461FE"/>
<path d="M26.093 33.3023C26.093 33.6876 25.7807 34 25.3953 34C25.01 34 24.6977 33.6876 24.6977 33.3023V30.5116H26.093V33.3023Z" fill="#0461FE"/>
<path d="M33.3023 24.6977C32.917 24.6977 32.6046 25.01 32.6046 25.3953V28.6512H34V25.3953C34 25.01 33.6876 24.6977 33.3023 24.6977Z" fill="#0461FE"/>
<path d="M28.0761 28.6173C28 28.8011 28 29.0341 28 29.5C28 29.9659 28 30.1989 28.0761 30.3827C28.1776 30.6277 28.3723 30.8224 28.6173 30.9239C28.8011 31 29.0341 31 29.5 31C29.9659 31 30.1989 31 30.3827 30.9239C30.6277 30.8224 30.8224 30.6277 30.9239 30.3827C31 30.1989 31 29.9659 31 29.5C31 29.0341 31 28.8011 30.9239 28.6173C30.8224 28.3723 30.6277 28.1776 30.3827 28.0761C30.1989 28 29.9659 28 29.5 28C29.0341 28 28.8011 28 28.6173 28.0761C28.3723 28.1776 28.1776 28.3723 28.0761 28.6173Z" fill="#0461FE"/>
</svg>
