<svg width="24" height="24" viewBox="0 0 24 24" fill="none" xmlns="http://www.w3.org/2000/svg">
<path d="M2 17.4C2 19.3641 2 20.3461 2.44208 21.0675C2.68945 21.4712 3.02884 21.8106 3.4325 22.0579C4.15391 22.5 5.13594 22.5 7.1 22.5C8.40937 22.5 9.06406 22.5 9.545 22.2053C9.81411 22.0404 10.0404 21.8141 10.2053 21.545C10.5 21.0641 10.5 20.4094 10.5 19.1V18C10.5 16.1144 10.5 15.1716 9.91421 14.5858C9.32843 14 8.38562 14 6.5 14H5.4C4.09063 14 3.43594 14 2.955 14.2947C2.68589 14.4596 2.45963 14.6859 2.29472 14.955C2 15.4359 2 16.0906 2 17.4Z" stroke="#080808" stroke-width="1.5"/>
<path d="M22.5 7.1C22.5 5.13594 22.5 4.15391 22.0579 3.4325C21.8106 3.02884 21.4712 2.68945 21.0675 2.44208C20.3461 2 19.3641 2 17.4 2C16.0906 2 15.4359 2 14.955 2.29472C14.6859 2.45963 14.4596 2.68589 14.2947 2.955C14 3.43594 14 4.09063 14 5.4V6.5C14 8.38562 14 9.32843 14.5858 9.91421C15.1716 10.5 16.1144 10.5 18 10.5H19.1C20.4094 10.5 21.0641 10.5 21.545 10.2053C21.8141 10.0404 22.0404 9.81411 22.2053 9.545C22.5 9.06406 22.5 8.40937 22.5 7.1Z" stroke="#080808" stroke-width="1.5"/>
<path d="M17 6.25C17 5.73459 17 5.47689 17.1291 5.29493C17.1747 5.23072 17.2307 5.17466 17.2949 5.12911C17.4769 5 17.7346 5 18.25 5C18.7654 5 19.0231 5 19.2051 5.12911C19.2693 5.17466 19.3253 5.23072 19.3709 5.29493C19.5 5.47689 19.5 5.73459 19.5 6.25C19.5 6.76541 19.5 7.02311 19.3709 7.20507C19.3253 7.26928 19.2693 7.32534 19.2051 7.37089C19.0231 7.5 18.7654 7.5 18.25 7.5C17.7346 7.5 17.4769 7.5 17.2949 7.37089C17.2307 7.32534 17.1747 7.26928 17.1291 7.20507C17 7.02311 17 6.76541 17 6.25Z" fill="#080808"/>
<path d="M2 7.1C2 5.13594 2 4.15391 2.44208 3.4325C2.68945 3.02884 3.02884 2.68945 3.4325 2.44208C4.15391 2 5.13594 2 7.1 2C8.40937 2 9.06406 2 9.545 2.29472C9.81411 2.45963 10.0404 2.68589 10.2053 2.955C10.5 3.43594 10.5 4.09063 10.5 5.4V6.5C10.5 8.38562 10.5 9.32843 9.91421 9.91421C9.32843 10.5 8.38562 10.5 6.5 10.5H5.4C4.09063 10.5 3.43594 10.5 2.955 10.2053C2.68589 10.0404 2.45963 9.81411 2.29472 9.545C2 9.06406 2 8.40937 2 7.1Z" stroke="#080808" stroke-width="1.5"/>
<path d="M5 6.25C5 5.73459 5 5.47689 5.12911 5.29493C5.17466 5.23072 5.23072 5.17466 5.29493 5.12911C5.47689 5 5.73459 5 6.25 5C6.76541 5 7.02311 5 7.20507 5.12911C7.26928 5.17466 7.32534 5.23072 7.37089 5.29493C7.5 5.47689 7.5 5.73459 7.5 6.25C7.5 6.76541 7.5 7.02311 7.37089 7.20507C7.32534 7.26928 7.26928 7.32534 7.20507 7.37089C7.02311 7.5 6.76541 7.5 6.25 7.5C5.73459 7.5 5.47689 7.5 5.29493 7.37089C5.23072 7.32534 5.17466 7.26928 5.12911 7.20507C5 7.02311 5 6.76541 5 6.25Z" fill="#080808"/>
<path d="M5 18.25C5 17.7346 5 17.4769 5.12911 17.2949C5.17466 17.2307 5.23072 17.1747 5.29493 17.1291C5.47689 17 5.73459 17 6.25 17C6.76541 17 7.02311 17 7.20507 17.1291C7.26928 17.1747 7.32534 17.2307 7.37089 17.2949C7.5 17.4769 7.5 17.7346 7.5 18.25C7.5 18.7654 7.5 19.0231 7.37089 19.2051C7.32534 19.2693 7.26928 19.3253 7.20507 19.3709C7.02311 19.5 6.76541 19.5 6.25 19.5C5.73459 19.5 5.47689 19.5 5.29493 19.3709C5.23072 19.3253 5.17466 19.2693 5.12911 19.2051C5 19.0231 5 18.7654 5 18.25Z" fill="#080808"/>
<path d="M13.25 22.5C13.25 22.9142 13.5858 23.25 14 23.25C14.4142 23.25 14.75 22.9142 14.75 22.5H13.25ZM15.0303 14.3371L15.4048 14.9868L15.4048 14.9868L15.0303 14.3371ZM14.3907 14.8889L13.7977 14.4296L13.7977 14.4296L14.3907 14.8889ZM20.375 13.25H18.0568V14.75H20.375V13.25ZM13.25 19.5V22.5H14.75V19.5H13.25ZM18.0568 13.25C17.2564 13.25 16.6073 13.2493 16.0868 13.295C15.5585 13.3414 15.0841 13.4403 14.6557 13.6873L15.4048 14.9868C15.5611 14.8968 15.7861 14.8272 16.2179 14.7893C16.6575 14.7507 17.2294 14.75 18.0568 14.75V13.25ZM14.75 17.5C14.75 16.7797 14.7512 16.3049 14.7937 15.9447C14.8339 15.6037 14.9032 15.452 14.9836 15.3481L13.7977 14.4296C13.4875 14.8302 13.3615 15.2818 13.304 15.7691C13.2488 16.2373 13.25 16.8158 13.25 17.5H14.75ZM14.6557 13.6873C14.323 13.8791 14.03 14.1297 13.7977 14.4296L14.9836 15.3481C15.0897 15.2112 15.2313 15.0869 15.4048 14.9868L14.6557 13.6873Z" fill="#080808"/>
<path d="M23.25 14C23.25 13.5858 22.9142 13.25 22.5 13.25C22.0858 13.25 21.75 13.5858 21.75 14H23.25ZM21.1882 22.3478L21.4606 23.0465L21.4606 23.0465L21.1882 22.3478ZM22.3382 21.2654L21.6518 20.9633L21.6518 20.9633L22.3382 21.2654ZM17.1875 23.25H19.3125V21.75H17.1875V23.25ZM23.25 17.5V14H21.75V17.5H23.25ZM19.3125 23.25C19.7979 23.25 20.1973 23.2504 20.5233 23.2294C20.8551 23.2081 21.1631 23.1625 21.4606 23.0465L20.9158 21.649C20.8228 21.6852 20.688 21.7158 20.4271 21.7325C20.1604 21.7496 19.8172 21.75 19.3125 21.75V23.25ZM21.75 19.5C21.75 19.9768 21.7495 20.2946 21.7317 20.5401C21.7145 20.7779 21.6838 20.8904 21.6518 20.9633L23.0247 21.5675C23.1544 21.2728 23.2046 20.9685 23.2278 20.6485C23.2505 20.3362 23.25 19.955 23.25 19.5H21.75ZM21.4606 23.0465C22.1574 22.7749 22.7252 22.2481 23.0247 21.5675L21.6518 20.9633C21.52 21.2628 21.2604 21.5146 20.9158 21.649L21.4606 23.0465Z" fill="#080808"/>
<path d="M16.5 18.25C16.5 17.5478 16.5 17.1967 16.6685 16.9444C16.7415 16.8352 16.8352 16.7415 16.9444 16.6685C17.1967 16.5 17.5478 16.5 18.25 16.5C18.9522 16.5 19.3033 16.5 19.5556 16.6685C19.6648 16.7415 19.7585 16.8352 19.8315 16.9444C20 17.1967 20 17.5478 20 18.25C20 18.9522 20 19.3033 19.8315 19.5556C19.7585 19.6648 19.6648 19.7585 19.5556 19.8315C19.3033 20 18.9522 20 18.25 20C17.5478 20 17.1967 20 16.9444 19.8315C16.8352 19.7585 16.7415 19.6648 16.6685 19.5556C16.5 19.3033 16.5 18.9522 16.5 18.25Z" fill="#080808"/>
</svg>
