<svg width="32" height="32" viewBox="0 0 32 32" fill="none" xmlns="http://www.w3.org/2000/svg">
<path opacity="0.2" d="M16.0006 0C-5.33173 0.374104 -5.33511 31.6228 15.9999 32C37.3316 31.6259 37.3349 0.377185 16.0006 0Z" fill="#0461FE"/>
<path d="M16.0002 2.96289C-1.38092 3.41208 -1.38472 28.5852 15.9998 29.037C33.3806 28.5878 33.3844 3.41462 16.0002 2.96289Z" fill="#0461FE"/>
<path fill-rule="evenodd" clip-rule="evenodd" d="M19.0173 9.33398H19.0628C19.652 9.33398 20.1271 9.33397 20.5096 9.37034C20.9041 9.40785 21.2478 9.48729 21.5568 9.67668C21.8698 9.86844 22.1329 10.1315 22.3246 10.4445C22.514 10.7535 22.5935 11.0972 22.631 11.4917C22.6673 11.8742 22.6673 12.3493 22.6673 12.9385V12.9841C22.6673 13.3712 22.6673 13.6943 22.6424 13.9567C22.6163 14.231 22.5597 14.4867 22.416 14.7212C22.2754 14.9507 22.0824 15.1436 21.853 15.2842C21.6185 15.4279 21.3628 15.4845 21.0885 15.5106C20.8261 15.5356 20.503 15.5355 20.1159 15.5355L19.3792 15.5355C18.8221 15.5356 18.3574 15.5356 17.9886 15.486C17.5992 15.4336 17.2477 15.3185 16.9653 15.036C16.6828 14.7536 16.5677 14.4021 16.5153 14.0127C16.4657 13.6439 16.4657 13.1792 16.4658 12.622L16.4658 11.8855C16.4658 11.4983 16.4658 11.1752 16.4907 10.9128C16.5168 10.6385 16.5734 10.3828 16.7171 10.1483C16.8577 9.91885 17.0506 9.72592 17.2801 9.5853C17.5146 9.4416 17.7703 9.385 18.0446 9.35892C18.307 9.33397 18.6301 9.33398 19.0173 9.33398ZM19.5665 13.21C19.2469 13.21 19.0871 13.21 18.9743 13.1299C18.9344 13.1016 18.8997 13.0669 18.8714 13.0271C18.7913 12.9142 18.7913 12.7544 18.7913 12.4348C18.7913 12.1151 18.7913 11.9553 18.8714 11.8425C18.8997 11.8027 18.9344 11.7679 18.9743 11.7396C19.0871 11.6596 19.2469 11.6596 19.5665 11.6596C19.8862 11.6596 20.046 11.6596 20.1588 11.7396C20.1987 11.7679 20.2334 11.8027 20.2617 11.8425C20.3417 11.9553 20.3417 12.1151 20.3417 12.4348C20.3417 12.7544 20.3417 12.9142 20.2617 13.0271C20.2334 13.0669 20.1987 13.1016 20.1588 13.1299C20.046 13.21 19.8862 13.21 19.5665 13.21Z" fill="white"/>
<path fill-rule="evenodd" clip-rule="evenodd" d="M14.7212 9.5853C14.4867 9.4416 14.231 9.385 13.9567 9.35892C13.6943 9.33397 13.3712 9.33398 12.9841 9.33398H12.9385C12.3494 9.33398 11.8742 9.33397 11.4917 9.37034C11.0972 9.40785 10.7535 9.48729 10.4445 9.67668C10.1315 9.86844 9.86844 10.1315 9.67668 10.4445C9.48729 10.7535 9.40785 11.0972 9.37034 11.4917C9.33397 11.8742 9.33398 12.3493 9.33398 12.9385V12.984C9.33398 13.3712 9.33397 13.6943 9.35892 13.9567C9.385 14.231 9.4416 14.4867 9.5853 14.7212C9.72592 14.9507 9.91885 15.1436 10.1483 15.2842C10.3828 15.4279 10.6385 15.4845 10.9128 15.5106C11.1752 15.5356 11.4983 15.5355 11.8854 15.5355L12.622 15.5355C13.1792 15.5356 13.6439 15.5356 14.0127 15.486C14.4021 15.4336 14.7536 15.3185 15.036 15.036C15.3185 14.7536 15.4336 14.4021 15.486 14.0127C15.5356 13.6439 15.5356 13.1793 15.5355 12.6221L15.5355 11.8855C15.5355 11.4984 15.5356 11.1752 15.5106 10.9128C15.4845 10.6385 15.4279 10.3828 15.2842 10.1483C15.1436 9.91885 14.9507 9.72592 14.7212 9.5853ZM11.8425 13.1299C11.9553 13.21 12.1151 13.21 12.4348 13.21C12.7544 13.21 12.9142 13.21 13.0271 13.1299C13.0669 13.1016 13.1016 13.0669 13.1299 13.0271C13.21 12.9142 13.21 12.7544 13.21 12.4348C13.21 12.1151 13.21 11.9553 13.1299 11.8425C13.1016 11.8027 13.0669 11.7679 13.0271 11.7396C12.9142 11.6596 12.7544 11.6596 12.4348 11.6596C12.1151 11.6596 11.9553 11.6596 11.8425 11.7396C11.8027 11.7679 11.7679 11.8027 11.7396 11.8425C11.6596 11.9553 11.6596 12.1151 11.6596 12.4348C11.6596 12.7544 11.6596 12.9142 11.7396 13.0271C11.7679 13.0669 11.8027 13.1016 11.8425 13.1299Z" fill="white"/>
<path fill-rule="evenodd" clip-rule="evenodd" d="M14.0127 16.5153C14.4021 16.5677 14.7536 16.6828 15.036 16.9653C15.3185 17.2477 15.4336 17.5992 15.486 17.9886C15.5356 18.3574 15.5356 18.8221 15.5355 19.3793L15.5355 20.1158C15.5355 20.503 15.5356 20.8261 15.5106 21.0885C15.4845 21.3628 15.4279 21.6185 15.2842 21.853C15.1436 22.0824 14.9507 22.2754 14.7212 22.416C14.4867 22.5597 14.231 22.6163 13.9567 22.6424C13.6943 22.6673 13.3712 22.6673 12.984 22.6673H12.9385C12.3493 22.6673 11.8742 22.6673 11.4917 22.631C11.0972 22.5935 10.7535 22.514 10.4445 22.3246C10.1315 22.1329 9.86844 21.8698 9.67668 21.5568C9.48729 21.2478 9.40785 20.9041 9.37034 20.5096C9.33397 20.1271 9.33398 19.652 9.33398 19.0628V19.0173C9.33398 18.6301 9.33397 18.307 9.35892 18.0446C9.385 17.7703 9.4416 17.5146 9.5853 17.2801C9.72592 17.0506 9.91885 16.8577 10.1483 16.7171C10.3828 16.5734 10.6385 16.5168 10.9128 16.4907C11.1752 16.4658 11.4983 16.4658 11.8854 16.4658L12.622 16.4658C13.1792 16.4657 13.6439 16.4657 14.0127 16.5153ZM12.4348 20.3417C12.1151 20.3417 11.9553 20.3417 11.8425 20.2617C11.8027 20.2334 11.7679 20.1987 11.7396 20.1588C11.6596 20.046 11.6596 19.8862 11.6596 19.5665C11.6596 19.2469 11.6596 19.0871 11.7396 18.9743C11.7679 18.9344 11.8027 18.8997 11.8425 18.8714C11.9553 18.7913 12.1151 18.7913 12.4348 18.7913C12.7544 18.7913 12.9142 18.7913 13.0271 18.8714C13.0669 18.8997 13.1016 18.9344 13.1299 18.9743C13.21 19.0871 13.21 19.2469 13.21 19.5665C13.21 19.8862 13.21 20.046 13.1299 20.1588C13.1016 20.1987 13.0669 20.2334 13.0271 20.2617C12.9142 20.3417 12.7544 20.3417 12.4348 20.3417Z" fill="white"/>
<path d="M16.4658 19.0776V19.1014H17.396C17.396 18.6563 17.3966 18.3574 17.4197 18.1295C17.4421 17.9095 17.4817 17.8078 17.5266 17.7405C17.5832 17.6559 17.6559 17.5832 17.7405 17.5266C17.8078 17.4817 17.9095 17.4421 18.1295 17.4197C18.3574 17.3966 18.6563 17.396 19.1014 17.396H20.3417V16.4658H19.0776C18.6624 16.4658 18.3159 16.4657 18.0354 16.4943C17.7418 16.5242 17.4693 16.5891 17.2237 16.7532C17.0375 16.8776 16.8776 17.0375 16.7532 17.2237C16.5891 17.4693 16.5242 17.7418 16.4943 18.0354C16.4657 18.3159 16.4658 18.6624 16.4658 19.0776Z" fill="white"/>
<path d="M22.6673 20.3574V20.3417H21.7371C21.7371 20.6371 21.7368 20.8353 21.7264 20.9887C21.7162 21.138 21.6979 21.2107 21.6781 21.2585C21.5994 21.4485 21.4485 21.5994 21.2585 21.6781C21.2107 21.6979 21.138 21.7162 20.9887 21.7264C20.8353 21.7368 20.6371 21.7371 20.3417 21.7371H19.1014V22.6673H20.3574C20.633 22.6673 20.8631 22.6673 21.052 22.6544C21.2487 22.641 21.4344 22.6121 21.6145 22.5375C22.0324 22.3644 22.3644 22.0324 22.5375 21.6145C22.6121 21.4344 22.641 21.2487 22.6544 21.052C22.6673 20.8631 22.6673 20.633 22.6673 20.3574Z" fill="white"/>
<path d="M17.396 22.2022C17.396 22.4591 17.1878 22.6673 16.9309 22.6673C16.674 22.6673 16.4658 22.4591 16.4658 22.2022V20.3417H17.396V22.2022Z" fill="white"/>
<path d="M22.2022 16.4658C21.9453 16.4658 21.7371 16.674 21.7371 16.9309V19.1014H22.6673V16.9309C22.6673 16.674 22.4591 16.4658 22.2022 16.4658Z" fill="white"/>
<path d="M18.7181 19.0789C18.6673 19.2014 18.6673 19.3567 18.6673 19.6673C18.6673 19.9779 18.6673 20.1333 18.7181 20.2558C18.7857 20.4191 18.9155 20.5489 19.0789 20.6166C19.2014 20.6673 19.3567 20.6673 19.6673 20.6673C19.9779 20.6673 20.1333 20.6673 20.2558 20.6166C20.4191 20.5489 20.5489 20.4191 20.6166 20.2558C20.6673 20.1333 20.6673 19.9779 20.6673 19.6673C20.6673 19.3567 20.6673 19.2014 20.6166 19.0789C20.5489 18.9155 20.4191 18.7857 20.2558 18.7181C20.1333 18.6673 19.9779 18.6673 19.6673 18.6673C19.3567 18.6673 19.2014 18.6673 19.0789 18.7181C18.9155 18.7857 18.7857 18.9155 18.7181 19.0789Z" fill="white"/>
</svg>
