<svg width="24" height="24" viewBox="0 0 24 24" fill="none" xmlns="http://www.w3.org/2000/svg">
<path fill-rule="evenodd" clip-rule="evenodd" d="M8.25063 6.01489C8.25054 6.00994 8.25049 6.00498 8.25049 6V5C8.25049 2.92893 9.92942 1.25 12.0005 1.25C14.0716 1.25 15.7505 2.92893 15.7505 5V6C15.7505 6.00498 15.7504 6.00994 15.7503 6.0149C17.0376 6.05353 17.8253 6.1924 18.4266 6.69147C19.2598 7.38295 19.4792 8.55339 19.9181 10.8943L20.6681 14.8943C21.2853 18.186 21.5939 19.8318 20.6942 20.9159C19.7945 22 18.12 22 14.7709 22H9.23003C5.88097 22 4.20644 22 3.30672 20.9159C2.40701 19.8318 2.7156 18.186 3.3328 14.8943L4.0828 10.8943C4.52171 8.55339 4.74117 7.38295 5.57434 6.69147C6.1757 6.19239 6.96337 6.05353 8.25063 6.01489ZM9.75049 5C9.75049 3.75736 10.7578 2.75 12.0005 2.75C13.2431 2.75 14.2505 3.75736 14.2505 5V6C14.2505 5.99999 14.2505 6.00001 14.2505 6C14.1752 5.99998 14.0987 6 14.0209 6H9.98003C9.90226 6 9.82575 6 9.75049 6.00002C9.75049 6.00002 9.75049 6.00003 9.75049 6.00002V5ZM15.469 10.9144C15.7924 11.1731 15.8449 11.6451 15.5861 11.9685L11.5861 16.9685C11.4529 17.1351 11.255 17.2371 11.0419 17.2489C10.8289 17.2607 10.621 17.1812 10.4701 17.0304L8.47014 15.0304C8.17725 14.7375 8.17725 14.2626 8.47014 13.9697C8.76304 13.6768 9.23791 13.6768 9.5308 13.9697L10.938 15.3769L14.4148 11.0315C14.6736 10.7081 15.1455 10.6556 15.469 10.9144Z" fill="#0461FE"/>
</svg>
