<svg width="108" height="24" viewBox="0 0 108 24" fill="none" xmlns="http://www.w3.org/2000/svg">
<path d="M0 4.91653V3.92597C0 2.36793 1.25474 1.10547 2.802 1.10547H3.82641V4.9171H5.29802V7.69755H1.75069L3.82641 8.13247V11.7258C3.82641 12.5398 4.10717 13.2314 4.66869 13.8011C5.23022 14.3709 5.92847 14.6648 6.76403 14.6828V18.5351C4.85082 18.4899 3.24472 17.8141 1.94683 16.5071C0.648943 15.2007 0 13.6071 0 11.7258V11.5763C0.0089664 11.5583 0.0134499 11.5402 0.0134499 11.5222H0V7.69699" fill="#080808"/>
<path d="M13.678 0.972656H6.69768C6.64332 0.972656 6.59961 1.01666 6.59961 1.07137V4.73521C6.59961 4.78993 6.64332 4.83393 6.69768 4.83393H13.1316C13.4337 4.83393 13.6786 5.08044 13.6786 5.38449V8.4453C13.6786 8.50002 13.7223 8.54401 13.7767 8.54401H17.417C17.4714 8.54401 17.5151 8.50002 17.5151 8.4453V1.8786C17.5151 1.37824 17.1122 0.972656 16.6151 0.972656H13.6791H13.678Z" fill="#0461FE"/>
<path d="M13.676 18.5349H8.68173C8.63354 18.5349 8.59375 18.4954 8.59375 18.4464V14.7617C8.59375 14.7131 8.63298 14.6731 8.68173 14.6731H13.1397C13.4362 14.6731 13.6766 14.4311 13.6766 14.1327V10.4186C13.6766 10.3701 13.7158 10.3301 13.7646 10.3301H17.4251C17.4733 10.3301 17.5131 10.3696 17.5131 10.4186V17.6386C17.5131 18.1333 17.1146 18.5344 16.6232 18.5344H13.6771L13.676 18.5349Z" fill="#0461FE"/>
<path d="M28.2144 4.1917H22.9707V0.738281H37.5747V4.1917H32.3311V18.3004H28.2144V4.1917Z" fill="#080808"/>
<path d="M42.3784 5.67385V7.27702C43.1137 6.01908 44.3634 5.20508 45.7352 5.20508C46.2256 5.20508 46.74 5.32862 47.2298 5.52549V8.8063C46.5439 8.51014 45.7106 8.36235 45.1715 8.36235C43.5788 8.36235 42.5253 9.69419 42.5253 11.5935V18.3024H38.8496V5.67385H42.3784Z" fill="#080808"/>
<path d="M59.064 5.67328H62.7396V18.3018H59.064V16.5503C58.0838 17.956 56.5892 18.7948 54.8004 18.7948C51.2716 18.7948 48.7969 15.9828 48.7969 11.9873C48.7969 7.99173 51.2716 5.17969 54.8004 5.17969C56.5892 5.17969 58.0838 6.01851 59.064 7.42424V5.67271V5.67328ZM59.0393 11.9878C59.0393 9.9407 57.6669 8.43568 55.7559 8.43568C53.845 8.43568 52.4725 9.94013 52.4725 11.9878C52.4725 14.0355 53.845 15.54 55.7559 15.54C57.6669 15.54 59.0393 14.0355 59.0393 11.9878Z" fill="#080808"/>
<path d="M65.9244 0H69.6001V10.3349L73.8389 5.67316H78.2986L72.8588 11.5928L78.4701 18.3017H73.9857L69.5995 12.875V18.3017H65.9238V0H65.9244Z" fill="#080808"/>
<path d="M80.8983 20.8188C81.3394 20.9666 81.9519 21.0653 82.3929 21.0653C83.9609 21.0653 84.574 19.9552 85.1372 18.4259L79.207 5.67383H83.2257L86.6318 13.8132L89.4254 5.67383H93.2479L88.3959 18.7463C87.2196 22.0023 85.8719 24.0003 83.3237 24.0003C82.5397 24.0003 81.5837 23.8277 80.8978 23.5564V20.8182L80.8983 20.8188Z" fill="#080808"/>
<path d="M107.997 11.9873C107.997 16.0076 105.155 18.7948 101.014 18.7948C96.8724 18.7948 94.0547 16.0076 94.0547 11.9873C94.0547 7.96691 96.897 5.17969 101.014 5.17969C105.13 5.17969 107.997 7.94209 107.997 11.9873ZM104.298 11.9873C104.298 9.91531 102.95 8.43511 101.014 8.43511C99.0787 8.43511 97.755 9.91531 97.755 11.9873C97.755 14.0592 99.1028 15.5394 101.014 15.5394C102.926 15.5394 104.298 14.0592 104.298 11.9873Z" fill="#080808"/>
</svg>
