<svg width="48" height="48" viewBox="0 0 48 48" fill="none" xmlns="http://www.w3.org/2000/svg">
<path fill-rule="evenodd" clip-rule="evenodd" d="M0 24V38C0 43.5228 4.47715 48 10 48H24H38C43.5228 48 48 43.5228 48 38V24V10C48 4.47715 43.5229 0 38 0H24H10C4.47715 0 0 4.47715 0 10V24Z" fill="#0461FE"/>
<path fill-rule="evenodd" clip-rule="evenodd" d="M16.4102 18.4447C16.4102 20.8995 18.3503 22.8894 20.7436 22.8894C23.1369 22.8894 25.077 20.8995 25.077 18.4447C25.077 15.99 23.1369 14 20.7436 14C18.3503 14 16.4102 15.99 16.4102 18.4447ZM27.2433 22.8882C27.2433 24.7293 28.6984 26.2218 30.4933 26.2218C32.2883 26.2218 33.7434 24.7293 33.7434 22.8882C33.7434 21.0472 32.2883 19.5547 30.4933 19.5547C28.6984 19.5547 27.2433 21.0472 27.2433 22.8882Z" fill="white"/>
<path fill-rule="evenodd" clip-rule="evenodd" d="M20.7322 25.1094C15.6172 25.1094 11.4206 27.8057 11.0007 33.109C10.9778 33.3979 11.5164 33.9988 11.7881 33.9988H29.6843C30.4982 33.9988 30.5108 33.3271 30.4982 33.1099C30.1807 27.6575 25.9191 25.1094 20.7322 25.1094ZM32.2315 33.9926L32.2315 34.0011H36.4113C36.9991 34.0011 37.0082 33.4973 36.9991 33.3344C36.7724 29.2912 33.761 27.3773 30.0723 27.3347C31.4283 29.1903 32.2315 31.4953 32.2315 33.9926Z" fill="white"/>
</svg>
